solid OpenSCAD_Model
  facet normal -1 0 0
    outer loop
      vertex 1.15 5.5 2.65
      vertex 1.15 7.8 18.7
      vertex 1.15 7.8 2.65
    endloop
  endfacet
  facet normal -1 -0 0
    outer loop
      vertex 1.15 7.8 18.7
      vertex 1.15 5.5 2.65
      vertex 1.15 5.5 18.7
    endloop
  endfacet
  facet normal -1 0 0
    outer loop
      vertex 1.15 11.2 2.65
      vertex 1.15 13.5 18.7
      vertex 1.15 13.5 2.65
    endloop
  endfacet
  facet normal -1 -0 0
    outer loop
      vertex 1.15 13.5 18.7
      vertex 1.15 11.2 2.65
      vertex 1.15 11.2 18.7
    endloop
  endfacet
  facet normal 0 0 1
    outer loop
      vertex 12.85 13.5 18.7
      vertex 8.15 11.2 18.7
      vertex 12.85 11.2 18.7
    endloop
  endfacet
  facet normal 0 0 1
    outer loop
      vertex 8.15 11.2 18.7
      vertex 5.85 11.2 18.7
      vertex 8.15 7.8 18.7
    endloop
  endfacet
  facet normal 0 0 1
    outer loop
      vertex 12.85 13.5 18.7
      vertex 5.85 11.2 18.7
      vertex 8.15 11.2 18.7
    endloop
  endfacet
  facet normal -0 0 1
    outer loop
      vertex 1.15 13.5 18.7
      vertex 5.85 11.2 18.7
      vertex 12.85 13.5 18.7
    endloop
  endfacet
  facet normal 0 0 1
    outer loop
      vertex 5.85 11.2 18.7
      vertex 1.15 13.5 18.7
      vertex 1.15 11.2 18.7
    endloop
  endfacet
  facet normal -0 0 1
    outer loop
      vertex 8.15 7.8 18.7
      vertex 12.85 5.5 18.7
      vertex 12.85 7.8 18.7
    endloop
  endfacet
  facet normal 0 0 1
    outer loop
      vertex 5.85 7.8 18.7
      vertex 8.15 7.8 18.7
      vertex 5.85 11.2 18.7
    endloop
  endfacet
  facet normal -0 0 1
    outer loop
      vertex 5.85 7.8 18.7
      vertex 12.85 5.5 18.7
      vertex 8.15 7.8 18.7
    endloop
  endfacet
  facet normal 0 0 1
    outer loop
      vertex 1.15 5.5 18.7
      vertex 5.85 7.8 18.7
      vertex 1.15 7.8 18.7
    endloop
  endfacet
  facet normal 0 0 1
    outer loop
      vertex 5.85 7.8 18.7
      vertex 1.15 5.5 18.7
      vertex 12.85 5.5 18.7
    endloop
  endfacet
  facet normal 1 -0 0
    outer loop
      vertex 12.85 5.5 18.7
      vertex 12.85 7.8 2.65
      vertex 12.85 7.8 18.7
    endloop
  endfacet
  facet normal 1 0 0
    outer loop
      vertex 12.85 7.8 2.65
      vertex 12.85 5.5 18.7
      vertex 12.85 5.5 2.65
    endloop
  endfacet
  facet normal 1 -0 0
    outer loop
      vertex 12.85 11.2 18.7
      vertex 12.85 13.5 2.65
      vertex 12.85 13.5 18.7
    endloop
  endfacet
  facet normal 1 0 0
    outer loop
      vertex 12.85 13.5 2.65
      vertex 12.85 11.2 18.7
      vertex 12.85 11.2 2.65
    endloop
  endfacet
  facet normal 0 0 -1
    outer loop
      vertex 0 0 0
      vertex 14 29 0
      vertex 14 0 0
    endloop
  endfacet
  facet normal -0 0 -1
    outer loop
      vertex 14 29 0
      vertex 0 0 0
      vertex 0 29 0
    endloop
  endfacet
  facet normal 0 -1 0
    outer loop
      vertex 1.15 5.5 18.7
      vertex 7 5.5 16.85
      vertex 12.85 5.5 18.7
    endloop
  endfacet
  facet normal 0 -1 0
    outer loop
      vertex 1.15 5.5 18.7
      vertex 6.87979 5.5 16.8437
      vertex 7 5.5 16.85
    endloop
  endfacet
  facet normal 0 -1 0
    outer loop
      vertex 1.15 5.5 18.7
      vertex 6.7609 5.5 16.8249
      vertex 6.87979 5.5 16.8437
    endloop
  endfacet
  facet normal 0 -1 0
    outer loop
      vertex 1.15 5.5 18.7
      vertex 6.64463 5.5 16.7937
      vertex 6.7609 5.5 16.8249
    endloop
  endfacet
  facet normal 0 -1 0
    outer loop
      vertex 1.15 5.5 18.7
      vertex 6.53225 5.5 16.7506
      vertex 6.64463 5.5 16.7937
    endloop
  endfacet
  facet normal 0 -1 0
    outer loop
      vertex 1.15 5.5 18.7
      vertex 6.425 5.5 16.6959
      vertex 6.53225 5.5 16.7506
    endloop
  endfacet
  facet normal 0 -1 0
    outer loop
      vertex 1.15 5.5 18.7
      vertex 6.32405 5.5 16.6304
      vertex 6.425 5.5 16.6959
    endloop
  endfacet
  facet normal 0 -1 0
    outer loop
      vertex 1.15 5.5 18.7
      vertex 6.2305 5.5 16.5546
      vertex 6.32405 5.5 16.6304
    endloop
  endfacet
  facet normal 0 -1 0
    outer loop
      vertex 1.15 5.5 18.7
      vertex 6.14538 5.5 16.4695
      vertex 6.2305 5.5 16.5546
    endloop
  endfacet
  facet normal 0 -1 0
    outer loop
      vertex 1.15 5.5 18.7
      vertex 6.06963 5.5 16.376
      vertex 6.14538 5.5 16.4695
    endloop
  endfacet
  facet normal 0 -1 0
    outer loop
      vertex 1.15 5.5 18.7
      vertex 6.00407 5.5 16.275
      vertex 6.06963 5.5 16.376
    endloop
  endfacet
  facet normal 0 -1 0
    outer loop
      vertex 1.15 5.5 18.7
      vertex 5.94942 5.5 16.1677
      vertex 6.00407 5.5 16.275
    endloop
  endfacet
  facet normal 0 -1 0
    outer loop
      vertex 1.15 5.5 18.7
      vertex 5.90628 5.5 16.0554
      vertex 5.94942 5.5 16.1677
    endloop
  endfacet
  facet normal 0 -1 0
    outer loop
      vertex 1.15 5.5 18.7
      vertex 5.87513 5.5 15.9391
      vertex 5.90628 5.5 16.0554
    endloop
  endfacet
  facet normal 0 -1 0
    outer loop
      vertex 1.15 5.5 18.7
      vertex 5.8563 5.5 15.8202
      vertex 5.87513 5.5 15.9391
    endloop
  endfacet
  facet normal 0 -1 0
    outer loop
      vertex 1.15 5.5 18.7
      vertex 5.85 5.5 15.7
      vertex 5.8563 5.5 15.8202
    endloop
  endfacet
  facet normal 0 -1 0
    outer loop
      vertex 1.15 5.5 18.7
      vertex 5.8563 5.5 15.5798
      vertex 5.85 5.5 15.7
    endloop
  endfacet
  facet normal 0 -1 0
    outer loop
      vertex 1.15 5.5 18.7
      vertex 5.87513 5.5 15.4609
      vertex 5.8563 5.5 15.5798
    endloop
  endfacet
  facet normal 0 -1 0
    outer loop
      vertex 1.15 5.5 18.7
      vertex 5.90628 5.5 15.3446
      vertex 5.87513 5.5 15.4609
    endloop
  endfacet
  facet normal 0 -1 0
    outer loop
      vertex 1.15 5.5 18.7
      vertex 5.94942 5.5 15.2323
      vertex 5.90628 5.5 15.3446
    endloop
  endfacet
  facet normal 0 -1 0
    outer loop
      vertex 1.15 5.5 18.7
      vertex 6.00407 5.5 15.125
      vertex 5.94942 5.5 15.2323
    endloop
  endfacet
  facet normal 0 -1 0
    outer loop
      vertex 1.15 5.5 2.65
      vertex 6.00407 5.5 15.125
      vertex 1.15 5.5 18.7
    endloop
  endfacet
  facet normal 0 -1 -0
    outer loop
      vertex 6.00407 5.5 15.125
      vertex 1.15 5.5 2.65
      vertex 6.06963 5.5 15.024
    endloop
  endfacet
  facet normal 0 -1 -0
    outer loop
      vertex 6.06963 5.5 15.024
      vertex 1.15 5.5 2.65
      vertex 6.14538 5.5 14.9305
    endloop
  endfacet
  facet normal 0 -1 -0
    outer loop
      vertex 6.14538 5.5 14.9305
      vertex 1.15 5.5 2.65
      vertex 6.2305 5.5 14.8454
    endloop
  endfacet
  facet normal 0 -1 -0
    outer loop
      vertex 6.87979 5.5 14.5563
      vertex 1.15 5.5 2.65
      vertex 7 5.5 14.55
    endloop
  endfacet
  facet normal 0 -1 -0
    outer loop
      vertex 6.7609 5.5 14.5751
      vertex 1.15 5.5 2.65
      vertex 6.87979 5.5 14.5563
    endloop
  endfacet
  facet normal 0 -1 -0
    outer loop
      vertex 6.64463 5.5 14.6063
      vertex 1.15 5.5 2.65
      vertex 6.7609 5.5 14.5751
    endloop
  endfacet
  facet normal 0 -1 -0
    outer loop
      vertex 6.53225 5.5 14.6494
      vertex 1.15 5.5 2.65
      vertex 6.64463 5.5 14.6063
    endloop
  endfacet
  facet normal 0 -1 -0
    outer loop
      vertex 6.425 5.5 14.7041
      vertex 1.15 5.5 2.65
      vertex 6.53225 5.5 14.6494
    endloop
  endfacet
  facet normal 0 -1 -0
    outer loop
      vertex 6.32405 5.5 14.7696
      vertex 1.15 5.5 2.65
      vertex 6.425 5.5 14.7041
    endloop
  endfacet
  facet normal 0 -1 -0
    outer loop
      vertex 6.2305 5.5 14.8454
      vertex 1.15 5.5 2.65
      vertex 6.32405 5.5 14.7696
    endloop
  endfacet
  facet normal 0 -1 0
    outer loop
      vertex 7.12021 5.5 16.8437
      vertex 12.85 5.5 18.7
      vertex 7 5.5 16.85
    endloop
  endfacet
  facet normal 0 -1 0
    outer loop
      vertex 7.2391 5.5 16.8249
      vertex 12.85 5.5 18.7
      vertex 7.12021 5.5 16.8437
    endloop
  endfacet
  facet normal 0 -1 0
    outer loop
      vertex 7.35537 5.5 16.7937
      vertex 12.85 5.5 18.7
      vertex 7.2391 5.5 16.8249
    endloop
  endfacet
  facet normal 0 -1 0
    outer loop
      vertex 7.46775 5.5 16.7506
      vertex 12.85 5.5 18.7
      vertex 7.35537 5.5 16.7937
    endloop
  endfacet
  facet normal 0 -1 0
    outer loop
      vertex 7.575 5.5 16.6959
      vertex 12.85 5.5 18.7
      vertex 7.46775 5.5 16.7506
    endloop
  endfacet
  facet normal 0 -1 0
    outer loop
      vertex 7.67595 5.5 16.6304
      vertex 12.85 5.5 18.7
      vertex 7.575 5.5 16.6959
    endloop
  endfacet
  facet normal 0 -1 0
    outer loop
      vertex 7.7695 5.5 16.5546
      vertex 12.85 5.5 18.7
      vertex 7.67595 5.5 16.6304
    endloop
  endfacet
  facet normal 0 -1 0
    outer loop
      vertex 7.85462 5.5 16.4695
      vertex 12.85 5.5 18.7
      vertex 7.7695 5.5 16.5546
    endloop
  endfacet
  facet normal 0 -1 0
    outer loop
      vertex 7.93037 5.5 16.376
      vertex 12.85 5.5 18.7
      vertex 7.85462 5.5 16.4695
    endloop
  endfacet
  facet normal 0 -1 0
    outer loop
      vertex 7.99593 5.5 16.275
      vertex 12.85 5.5 18.7
      vertex 7.93037 5.5 16.376
    endloop
  endfacet
  facet normal 0 -1 0
    outer loop
      vertex 8.05058 5.5 16.1677
      vertex 12.85 5.5 18.7
      vertex 7.99593 5.5 16.275
    endloop
  endfacet
  facet normal 0 -1 0
    outer loop
      vertex 8.09371 5.5 16.0554
      vertex 12.85 5.5 18.7
      vertex 8.05058 5.5 16.1677
    endloop
  endfacet
  facet normal 0 -1 0
    outer loop
      vertex 8.12487 5.5 15.9391
      vertex 12.85 5.5 18.7
      vertex 8.09371 5.5 16.0554
    endloop
  endfacet
  facet normal 0 -1 0
    outer loop
      vertex 8.1437 5.5 15.8202
      vertex 12.85 5.5 18.7
      vertex 8.12487 5.5 15.9391
    endloop
  endfacet
  facet normal 0 -1 0
    outer loop
      vertex 8.15 5.5 15.7
      vertex 12.85 5.5 18.7
      vertex 8.1437 5.5 15.8202
    endloop
  endfacet
  facet normal 0 -1 0
    outer loop
      vertex 8.1437 5.5 15.5798
      vertex 12.85 5.5 18.7
      vertex 8.15 5.5 15.7
    endloop
  endfacet
  facet normal 0 -1 0
    outer loop
      vertex 8.12487 5.5 15.4609
      vertex 12.85 5.5 18.7
      vertex 8.1437 5.5 15.5798
    endloop
  endfacet
  facet normal 0 -1 0
    outer loop
      vertex 8.09371 5.5 15.3446
      vertex 12.85 5.5 18.7
      vertex 8.12487 5.5 15.4609
    endloop
  endfacet
  facet normal 0 -1 0
    outer loop
      vertex 8.05058 5.5 15.2323
      vertex 12.85 5.5 18.7
      vertex 8.09371 5.5 15.3446
    endloop
  endfacet
  facet normal 0 -1 0
    outer loop
      vertex 7.99593 5.5 15.125
      vertex 12.85 5.5 18.7
      vertex 8.05058 5.5 15.2323
    endloop
  endfacet
  facet normal 0 -1 0
    outer loop
      vertex 12.85 5.5 2.65
      vertex 7.99593 5.5 15.125
      vertex 7.93037 5.5 15.024
    endloop
  endfacet
  facet normal 0 -1 0
    outer loop
      vertex 12.85 5.5 2.65
      vertex 7.93037 5.5 15.024
      vertex 7.85462 5.5 14.9305
    endloop
  endfacet
  facet normal 0 -1 0
    outer loop
      vertex 12.85 5.5 2.65
      vertex 7.85462 5.5 14.9305
      vertex 7.7695 5.5 14.8454
    endloop
  endfacet
  facet normal 0 -1 0
    outer loop
      vertex 12.85 5.5 2.65
      vertex 7.7695 5.5 14.8454
      vertex 7.67595 5.5 14.7696
    endloop
  endfacet
  facet normal 0 -1 0
    outer loop
      vertex 12.85 5.5 2.65
      vertex 7 5.5 14.55
      vertex 1.15 5.5 2.65
    endloop
  endfacet
  facet normal 0 -1 0
    outer loop
      vertex 7 5.5 14.55
      vertex 12.85 5.5 2.65
      vertex 7.12021 5.5 14.5563
    endloop
  endfacet
  facet normal 0 -1 0
    outer loop
      vertex 7.12021 5.5 14.5563
      vertex 12.85 5.5 2.65
      vertex 7.2391 5.5 14.5751
    endloop
  endfacet
  facet normal 0 -1 0
    outer loop
      vertex 7.2391 5.5 14.5751
      vertex 12.85 5.5 2.65
      vertex 7.35537 5.5 14.6063
    endloop
  endfacet
  facet normal 0 -1 0
    outer loop
      vertex 7.35537 5.5 14.6063
      vertex 12.85 5.5 2.65
      vertex 7.46775 5.5 14.6494
    endloop
  endfacet
  facet normal 0 -1 0
    outer loop
      vertex 7.46775 5.5 14.6494
      vertex 12.85 5.5 2.65
      vertex 7.575 5.5 14.7041
    endloop
  endfacet
  facet normal 0 -1 0
    outer loop
      vertex 7.575 5.5 14.7041
      vertex 12.85 5.5 2.65
      vertex 7.67595 5.5 14.7696
    endloop
  endfacet
  facet normal 0 -1 0
    outer loop
      vertex 7.99593 5.5 15.125
      vertex 12.85 5.5 2.65
      vertex 12.85 5.5 18.7
    endloop
  endfacet
  facet normal 0 1 0
    outer loop
      vertex 12.85 13.5 18.7
      vertex 7 13.5 16.85
      vertex 1.15 13.5 18.7
    endloop
  endfacet
  facet normal 0 1 0
    outer loop
      vertex 12.85 13.5 18.7
      vertex 7.12021 13.5 16.8437
      vertex 7 13.5 16.85
    endloop
  endfacet
  facet normal 0 1 0
    outer loop
      vertex 12.85 13.5 18.7
      vertex 7.2391 13.5 16.8249
      vertex 7.12021 13.5 16.8437
    endloop
  endfacet
  facet normal 0 1 0
    outer loop
      vertex 12.85 13.5 18.7
      vertex 7.35537 13.5 16.7937
      vertex 7.2391 13.5 16.8249
    endloop
  endfacet
  facet normal 0 1 0
    outer loop
      vertex 12.85 13.5 18.7
      vertex 7.46775 13.5 16.7506
      vertex 7.35537 13.5 16.7937
    endloop
  endfacet
  facet normal 0 1 0
    outer loop
      vertex 12.85 13.5 18.7
      vertex 7.575 13.5 16.6959
      vertex 7.46775 13.5 16.7506
    endloop
  endfacet
  facet normal 0 1 0
    outer loop
      vertex 12.85 13.5 18.7
      vertex 7.67595 13.5 16.6304
      vertex 7.575 13.5 16.6959
    endloop
  endfacet
  facet normal 0 1 0
    outer loop
      vertex 12.85 13.5 18.7
      vertex 7.7695 13.5 16.5546
      vertex 7.67595 13.5 16.6304
    endloop
  endfacet
  facet normal 0 1 0
    outer loop
      vertex 12.85 13.5 18.7
      vertex 7.85462 13.5 16.4695
      vertex 7.7695 13.5 16.5546
    endloop
  endfacet
  facet normal 0 1 0
    outer loop
      vertex 12.85 13.5 18.7
      vertex 7.93037 13.5 16.376
      vertex 7.85462 13.5 16.4695
    endloop
  endfacet
  facet normal 0 1 0
    outer loop
      vertex 12.85 13.5 18.7
      vertex 7.99593 13.5 16.275
      vertex 7.93037 13.5 16.376
    endloop
  endfacet
  facet normal 0 1 0
    outer loop
      vertex 12.85 13.5 18.7
      vertex 8.05058 13.5 16.1677
      vertex 7.99593 13.5 16.275
    endloop
  endfacet
  facet normal 0 1 0
    outer loop
      vertex 12.85 13.5 18.7
      vertex 8.09371 13.5 16.0554
      vertex 8.05058 13.5 16.1677
    endloop
  endfacet
  facet normal 0 1 0
    outer loop
      vertex 12.85 13.5 18.7
      vertex 8.12487 13.5 15.9391
      vertex 8.09371 13.5 16.0554
    endloop
  endfacet
  facet normal 0 1 0
    outer loop
      vertex 12.85 13.5 18.7
      vertex 8.1437 13.5 15.8202
      vertex 8.12487 13.5 15.9391
    endloop
  endfacet
  facet normal 0 1 0
    outer loop
      vertex 12.85 13.5 18.7
      vertex 8.15 13.5 15.7
      vertex 8.1437 13.5 15.8202
    endloop
  endfacet
  facet normal 0 1 0
    outer loop
      vertex 12.85 13.5 18.7
      vertex 8.1437 13.5 15.5798
      vertex 8.15 13.5 15.7
    endloop
  endfacet
  facet normal 0 1 0
    outer loop
      vertex 12.85 13.5 18.7
      vertex 8.12487 13.5 15.4609
      vertex 8.1437 13.5 15.5798
    endloop
  endfacet
  facet normal 0 1 0
    outer loop
      vertex 12.85 13.5 18.7
      vertex 8.09371 13.5 15.3446
      vertex 8.12487 13.5 15.4609
    endloop
  endfacet
  facet normal 0 1 0
    outer loop
      vertex 12.85 13.5 18.7
      vertex 8.05058 13.5 15.2323
      vertex 8.09371 13.5 15.3446
    endloop
  endfacet
  facet normal 0 1 0
    outer loop
      vertex 8 13.5 10.6
      vertex 8.05058 13.5 15.2323
      vertex 12.85 13.5 18.7
    endloop
  endfacet
  facet normal 0 1 0
    outer loop
      vertex 8.05058 13.5 15.2323
      vertex 8 13.5 10.6
      vertex 7.99593 13.5 15.125
    endloop
  endfacet
  facet normal 0 1 0
    outer loop
      vertex 7.99593 13.5 15.125
      vertex 8 13.5 10.6
      vertex 7.93037 13.5 15.024
    endloop
  endfacet
  facet normal 0 1 0
    outer loop
      vertex 7.93037 13.5 15.024
      vertex 8 13.5 10.6
      vertex 7.85462 13.5 14.9305
    endloop
  endfacet
  facet normal 0 1 0
    outer loop
      vertex 7.85462 13.5 14.9305
      vertex 8 13.5 10.6
      vertex 7.7695 13.5 14.8454
    endloop
  endfacet
  facet normal 0 1 0
    outer loop
      vertex 7.12021 13.5 14.5563
      vertex 8 13.5 10.6
      vertex 7 13.5 14.55
    endloop
  endfacet
  facet normal 0 1 0
    outer loop
      vertex 7.2391 13.5 14.5751
      vertex 8 13.5 10.6
      vertex 7.12021 13.5 14.5563
    endloop
  endfacet
  facet normal 0 1 0
    outer loop
      vertex 7.35537 13.5 14.6063
      vertex 8 13.5 10.6
      vertex 7.2391 13.5 14.5751
    endloop
  endfacet
  facet normal 0 1 0
    outer loop
      vertex 7.46775 13.5 14.6494
      vertex 8 13.5 10.6
      vertex 7.35537 13.5 14.6063
    endloop
  endfacet
  facet normal 0 1 0
    outer loop
      vertex 7.575 13.5 14.7041
      vertex 8 13.5 10.6
      vertex 7.46775 13.5 14.6494
    endloop
  endfacet
  facet normal 0 1 0
    outer loop
      vertex 7.67595 13.5 14.7696
      vertex 8 13.5 10.6
      vertex 7.575 13.5 14.7041
    endloop
  endfacet
  facet normal 0 1 0
    outer loop
      vertex 7.7695 13.5 14.8454
      vertex 8 13.5 10.6
      vertex 7.67595 13.5 14.7696
    endloop
  endfacet
  facet normal 0 1 -0
    outer loop
      vertex 12.85 13.5 2.65
      vertex 8 13.5 10.6
      vertex 12.85 13.5 18.7
    endloop
  endfacet
  facet normal 0 1 0
    outer loop
      vertex 8 13.5 10.6
      vertex 12.85 13.5 2.65
      vertex 8 13.5 2.65
    endloop
  endfacet
  facet normal 0 1 -0
    outer loop
      vertex 6.87979 13.5 16.8437
      vertex 1.15 13.5 18.7
      vertex 7 13.5 16.85
    endloop
  endfacet
  facet normal 0 1 -0
    outer loop
      vertex 6.7609 13.5 16.8249
      vertex 1.15 13.5 18.7
      vertex 6.87979 13.5 16.8437
    endloop
  endfacet
  facet normal 0 1 -0
    outer loop
      vertex 6.64463 13.5 16.7937
      vertex 1.15 13.5 18.7
      vertex 6.7609 13.5 16.8249
    endloop
  endfacet
  facet normal 0 1 -0
    outer loop
      vertex 6.53225 13.5 16.7506
      vertex 1.15 13.5 18.7
      vertex 6.64463 13.5 16.7937
    endloop
  endfacet
  facet normal 0 1 -0
    outer loop
      vertex 6.425 13.5 16.6959
      vertex 1.15 13.5 18.7
      vertex 6.53225 13.5 16.7506
    endloop
  endfacet
  facet normal 0 1 -0
    outer loop
      vertex 6.32405 13.5 16.6304
      vertex 1.15 13.5 18.7
      vertex 6.425 13.5 16.6959
    endloop
  endfacet
  facet normal 0 1 -0
    outer loop
      vertex 6.2305 13.5 16.5546
      vertex 1.15 13.5 18.7
      vertex 6.32405 13.5 16.6304
    endloop
  endfacet
  facet normal 0 1 -0
    outer loop
      vertex 6.14538 13.5 16.4695
      vertex 1.15 13.5 18.7
      vertex 6.2305 13.5 16.5546
    endloop
  endfacet
  facet normal 0 1 -0
    outer loop
      vertex 6.06963 13.5 16.376
      vertex 1.15 13.5 18.7
      vertex 6.14538 13.5 16.4695
    endloop
  endfacet
  facet normal 0 1 -0
    outer loop
      vertex 6.00407 13.5 16.275
      vertex 1.15 13.5 18.7
      vertex 6.06963 13.5 16.376
    endloop
  endfacet
  facet normal 0 1 -0
    outer loop
      vertex 5.94942 13.5 16.1677
      vertex 1.15 13.5 18.7
      vertex 6.00407 13.5 16.275
    endloop
  endfacet
  facet normal 0 1 -0
    outer loop
      vertex 5.90628 13.5 16.0554
      vertex 1.15 13.5 18.7
      vertex 5.94942 13.5 16.1677
    endloop
  endfacet
  facet normal 0 1 -0
    outer loop
      vertex 5.87513 13.5 15.9391
      vertex 1.15 13.5 18.7
      vertex 5.90628 13.5 16.0554
    endloop
  endfacet
  facet normal 0 1 -0
    outer loop
      vertex 5.8563 13.5 15.8202
      vertex 1.15 13.5 18.7
      vertex 5.87513 13.5 15.9391
    endloop
  endfacet
  facet normal 0 1 -0
    outer loop
      vertex 5.85 13.5 15.7
      vertex 1.15 13.5 18.7
      vertex 5.8563 13.5 15.8202
    endloop
  endfacet
  facet normal 0 1 0
    outer loop
      vertex 5.8563 13.5 15.5798
      vertex 1.15 13.5 18.7
      vertex 5.85 13.5 15.7
    endloop
  endfacet
  facet normal 0 1 0
    outer loop
      vertex 5.87513 13.5 15.4609
      vertex 1.15 13.5 18.7
      vertex 5.8563 13.5 15.5798
    endloop
  endfacet
  facet normal 0 1 0
    outer loop
      vertex 5.90628 13.5 15.3446
      vertex 1.15 13.5 18.7
      vertex 5.87513 13.5 15.4609
    endloop
  endfacet
  facet normal 0 1 0
    outer loop
      vertex 5.94942 13.5 15.2323
      vertex 1.15 13.5 18.7
      vertex 5.90628 13.5 15.3446
    endloop
  endfacet
  facet normal 0 1 -0
    outer loop
      vertex 6 13.5 10.6
      vertex 5.94942 13.5 15.2323
      vertex 6.00407 13.5 15.125
    endloop
  endfacet
  facet normal 0 1 0
    outer loop
      vertex 6 13.5 10.6
      vertex 6.00407 13.5 15.125
      vertex 6.06963 13.5 15.024
    endloop
  endfacet
  facet normal 0 1 0
    outer loop
      vertex 6 13.5 10.6
      vertex 6.06963 13.5 15.024
      vertex 6.14538 13.5 14.9305
    endloop
  endfacet
  facet normal 0 1 0
    outer loop
      vertex 6 13.5 10.6
      vertex 6.14538 13.5 14.9305
      vertex 6.2305 13.5 14.8454
    endloop
  endfacet
  facet normal 0 1 0
    outer loop
      vertex 6 13.5 10.6
      vertex 6.2305 13.5 14.8454
      vertex 6.32405 13.5 14.7696
    endloop
  endfacet
  facet normal 0 1 0
    outer loop
      vertex 6 13.5 10.6
      vertex 7 13.5 14.55
      vertex 8 13.5 10.6
    endloop
  endfacet
  facet normal 0 1 0
    outer loop
      vertex 7 13.5 14.55
      vertex 6 13.5 10.6
      vertex 6.87979 13.5 14.5563
    endloop
  endfacet
  facet normal 0 1 0
    outer loop
      vertex 6.87979 13.5 14.5563
      vertex 6 13.5 10.6
      vertex 6.7609 13.5 14.5751
    endloop
  endfacet
  facet normal 0 1 0
    outer loop
      vertex 6.7609 13.5 14.5751
      vertex 6 13.5 10.6
      vertex 6.64463 13.5 14.6063
    endloop
  endfacet
  facet normal 0 1 0
    outer loop
      vertex 6.64463 13.5 14.6063
      vertex 6 13.5 10.6
      vertex 6.53225 13.5 14.6494
    endloop
  endfacet
  facet normal 0 1 0
    outer loop
      vertex 6.53225 13.5 14.6494
      vertex 6 13.5 10.6
      vertex 6.425 13.5 14.7041
    endloop
  endfacet
  facet normal 0 1 0
    outer loop
      vertex 6.425 13.5 14.7041
      vertex 6 13.5 10.6
      vertex 6.32405 13.5 14.7696
    endloop
  endfacet
  facet normal 0 1 0
    outer loop
      vertex 5.94942 13.5 15.2323
      vertex 6 13.5 10.6
      vertex 1.15 13.5 18.7
    endloop
  endfacet
  facet normal 0 1 0
    outer loop
      vertex 1.15 13.5 2.65
      vertex 6 13.5 10.6
      vertex 6 13.5 2.65
    endloop
  endfacet
  facet normal 0 1 0
    outer loop
      vertex 6 13.5 10.6
      vertex 1.15 13.5 2.65
      vertex 1.15 13.5 18.7
    endloop
  endfacet
  facet normal -1 0 0
    outer loop
      vertex 5.85 7.8 18.4676
      vertex 5.85 11.2 18.7
      vertex 5.85 11.2 18.4676
    endloop
  endfacet
  facet normal -1 -0 0
    outer loop
      vertex 5.85 11.2 18.7
      vertex 5.85 7.8 18.4676
      vertex 5.85 7.8 18.7
    endloop
  endfacet
  facet normal -1 0 0
    outer loop
      vertex 5.85 7.8 2.65
      vertex 5.85 11.2 12.9324
      vertex 5.85 11.2 2.65
    endloop
  endfacet
  facet normal -1 -0 0
    outer loop
      vertex 5.85 11.2 12.9324
      vertex 5.85 7.8 2.65
      vertex 5.85 7.8 12.9324
    endloop
  endfacet
  facet normal 0 -1 0
    outer loop
      vertex 5.23664 11.2 18.1271
      vertex 5.85 11.2 18.7
      vertex 1.15 11.2 18.7
    endloop
  endfacet
  facet normal 0 -1 -0
    outer loop
      vertex 5.85 11.2 18.7
      vertex 5.77979 11.2 18.4406
      vertex 5.85 11.2 18.4676
    endloop
  endfacet
  facet normal 0 -1 0
    outer loop
      vertex 5.85 11.2 18.7
      vertex 5.5 11.2 18.2981
      vertex 5.77979 11.2 18.4406
    endloop
  endfacet
  facet normal 0 -1 0
    outer loop
      vertex 5.85 11.2 18.7
      vertex 5.23664 11.2 18.1271
      vertex 5.5 11.2 18.2981
    endloop
  endfacet
  facet normal 0 -1 0
    outer loop
      vertex 1.15 11.2 18.7
      vertex 4.99261 11.2 17.9294
      vertex 5.23664 11.2 18.1271
    endloop
  endfacet
  facet normal 0 -1 0
    outer loop
      vertex 1.15 11.2 18.7
      vertex 4.77057 11.2 17.7074
      vertex 4.99261 11.2 17.9294
    endloop
  endfacet
  facet normal 0 -1 0
    outer loop
      vertex 1.15 11.2 18.7
      vertex 4.57295 11.2 17.4634
      vertex 4.77057 11.2 17.7074
    endloop
  endfacet
  facet normal 0 -1 0
    outer loop
      vertex 1.15 11.2 18.7
      vertex 4.40192 11.2 17.2
      vertex 4.57295 11.2 17.4634
    endloop
  endfacet
  facet normal 0 -1 0
    outer loop
      vertex 1.15 11.2 18.7
      vertex 4.25936 11.2 16.9202
      vertex 4.40192 11.2 17.2
    endloop
  endfacet
  facet normal 0 -1 0
    outer loop
      vertex 1.15 11.2 18.7
      vertex 4.14683 11.2 16.6271
      vertex 4.25936 11.2 16.9202
    endloop
  endfacet
  facet normal 0 -1 0
    outer loop
      vertex 1.15 11.2 18.7
      vertex 4.06556 11.2 16.3237
      vertex 4.14683 11.2 16.6271
    endloop
  endfacet
  facet normal 0 -1 0
    outer loop
      vertex 1.15 11.2 18.7
      vertex 4.01643 11.2 16.0136
      vertex 4.06556 11.2 16.3237
    endloop
  endfacet
  facet normal 0 -1 0
    outer loop
      vertex 1.15 11.2 18.7
      vertex 4 11.2 15.7
      vertex 4.01643 11.2 16.0136
    endloop
  endfacet
  facet normal 0 -1 0
    outer loop
      vertex 1.15 11.2 18.7
      vertex 4.01643 11.2 15.3864
      vertex 4 11.2 15.7
    endloop
  endfacet
  facet normal 0 -1 0
    outer loop
      vertex 1.15 11.2 18.7
      vertex 4.06556 11.2 15.0763
      vertex 4.01643 11.2 15.3864
    endloop
  endfacet
  facet normal 0 -1 0
    outer loop
      vertex 1.15 11.2 18.7
      vertex 4.14683 11.2 14.7729
      vertex 4.06556 11.2 15.0763
    endloop
  endfacet
  facet normal 0 -1 0
    outer loop
      vertex 1.15 11.2 18.7
      vertex 4.25936 11.2 14.4798
      vertex 4.14683 11.2 14.7729
    endloop
  endfacet
  facet normal 0 -1 0
    outer loop
      vertex 1.15 11.2 2.65
      vertex 4.25936 11.2 14.4798
      vertex 1.15 11.2 18.7
    endloop
  endfacet
  facet normal 0 -1 -0
    outer loop
      vertex 4.25936 11.2 14.4798
      vertex 1.15 11.2 2.65
      vertex 4.40192 11.2 14.2
    endloop
  endfacet
  facet normal 0 -1 -0
    outer loop
      vertex 4.40192 11.2 14.2
      vertex 1.15 11.2 2.65
      vertex 4.57295 11.2 13.9366
    endloop
  endfacet
  facet normal 0 -1 0
    outer loop
      vertex 1.15 11.2 2.65
      vertex 4.77057 11.2 13.6926
      vertex 4.57295 11.2 13.9366
    endloop
  endfacet
  facet normal 0 -1 0
    outer loop
      vertex 1.15 11.2 2.65
      vertex 4.99261 11.2 13.4706
      vertex 4.77057 11.2 13.6926
    endloop
  endfacet
  facet normal 0 -1 0
    outer loop
      vertex 1.15 11.2 2.65
      vertex 5.23664 11.2 13.2729
      vertex 4.99261 11.2 13.4706
    endloop
  endfacet
  facet normal 0 -1 0
    outer loop
      vertex 1.15 11.2 2.65
      vertex 5.5 11.2 13.1019
      vertex 5.23664 11.2 13.2729
    endloop
  endfacet
  facet normal 0 -1 0
    outer loop
      vertex 1.15 11.2 2.65
      vertex 5.77979 11.2 12.9594
      vertex 5.5 11.2 13.1019
    endloop
  endfacet
  facet normal 0 -1 0
    outer loop
      vertex 5.85 11.2 2.65
      vertex 5.77979 11.2 12.9594
      vertex 1.15 11.2 2.65
    endloop
  endfacet
  facet normal 0 -1 0
    outer loop
      vertex 5.77979 11.2 12.9594
      vertex 5.85 11.2 2.65
      vertex 5.85 11.2 12.9324
    endloop
  endfacet
  facet normal 0 1 0
    outer loop
      vertex 5.77979 7.8 18.4406
      vertex 5.85 7.8 18.7
      vertex 5.85 7.8 18.4676
    endloop
  endfacet
  facet normal 0 1 0
    outer loop
      vertex 5.5 7.8 18.2981
      vertex 5.85 7.8 18.7
      vertex 5.77979 7.8 18.4406
    endloop
  endfacet
  facet normal 0 1 0
    outer loop
      vertex 5.23664 7.8 18.1271
      vertex 5.85 7.8 18.7
      vertex 5.5 7.8 18.2981
    endloop
  endfacet
  facet normal 0 1 0
    outer loop
      vertex 5.85 7.8 18.7
      vertex 5.23664 7.8 18.1271
      vertex 1.15 7.8 18.7
    endloop
  endfacet
  facet normal 0 1 -0
    outer loop
      vertex 4.99261 7.8 17.9294
      vertex 1.15 7.8 18.7
      vertex 5.23664 7.8 18.1271
    endloop
  endfacet
  facet normal 0 1 -0
    outer loop
      vertex 4.77057 7.8 17.7074
      vertex 1.15 7.8 18.7
      vertex 4.99261 7.8 17.9294
    endloop
  endfacet
  facet normal 0 1 -0
    outer loop
      vertex 4.57295 7.8 17.4634
      vertex 1.15 7.8 18.7
      vertex 4.77057 7.8 17.7074
    endloop
  endfacet
  facet normal 0 1 -0
    outer loop
      vertex 4.40192 7.8 17.2
      vertex 1.15 7.8 18.7
      vertex 4.57295 7.8 17.4634
    endloop
  endfacet
  facet normal 0 1 -0
    outer loop
      vertex 4.25936 7.8 16.9202
      vertex 1.15 7.8 18.7
      vertex 4.40192 7.8 17.2
    endloop
  endfacet
  facet normal 0 1 -0
    outer loop
      vertex 4.14683 7.8 16.6271
      vertex 1.15 7.8 18.7
      vertex 4.25936 7.8 16.9202
    endloop
  endfacet
  facet normal 0 1 -0
    outer loop
      vertex 4.06556 7.8 16.3237
      vertex 1.15 7.8 18.7
      vertex 4.14683 7.8 16.6271
    endloop
  endfacet
  facet normal 0 1 -0
    outer loop
      vertex 4.01643 7.8 16.0136
      vertex 1.15 7.8 18.7
      vertex 4.06556 7.8 16.3237
    endloop
  endfacet
  facet normal 0 1 -0
    outer loop
      vertex 4 7.8 15.7
      vertex 1.15 7.8 18.7
      vertex 4.01643 7.8 16.0136
    endloop
  endfacet
  facet normal 0 1 0
    outer loop
      vertex 4.01643 7.8 15.3864
      vertex 1.15 7.8 18.7
      vertex 4 7.8 15.7
    endloop
  endfacet
  facet normal 0 1 0
    outer loop
      vertex 4.06556 7.8 15.0763
      vertex 1.15 7.8 18.7
      vertex 4.01643 7.8 15.3864
    endloop
  endfacet
  facet normal 0 1 0
    outer loop
      vertex 4.14683 7.8 14.7729
      vertex 1.15 7.8 18.7
      vertex 4.06556 7.8 15.0763
    endloop
  endfacet
  facet normal 0 1 0
    outer loop
      vertex 4.25936 7.8 14.4798
      vertex 1.15 7.8 18.7
      vertex 4.14683 7.8 14.7729
    endloop
  endfacet
  facet normal 0 1 0
    outer loop
      vertex 1.15 7.8 2.65
      vertex 4.25936 7.8 14.4798
      vertex 4.40192 7.8 14.2
    endloop
  endfacet
  facet normal 0 1 0
    outer loop
      vertex 1.15 7.8 2.65
      vertex 4.40192 7.8 14.2
      vertex 4.57295 7.8 13.9366
    endloop
  endfacet
  facet normal 0 1 -0
    outer loop
      vertex 5.85 7.8 2.65
      vertex 5.77979 7.8 12.9594
      vertex 5.85 7.8 12.9324
    endloop
  endfacet
  facet normal 0 1 0
    outer loop
      vertex 1.15 7.8 2.65
      vertex 5.77979 7.8 12.9594
      vertex 5.85 7.8 2.65
    endloop
  endfacet
  facet normal 0 1 0
    outer loop
      vertex 5.77979 7.8 12.9594
      vertex 1.15 7.8 2.65
      vertex 5.5 7.8 13.1019
    endloop
  endfacet
  facet normal 0 1 0
    outer loop
      vertex 5.5 7.8 13.1019
      vertex 1.15 7.8 2.65
      vertex 5.23664 7.8 13.2729
    endloop
  endfacet
  facet normal 0 1 0
    outer loop
      vertex 5.23664 7.8 13.2729
      vertex 1.15 7.8 2.65
      vertex 4.99261 7.8 13.4706
    endloop
  endfacet
  facet normal 0 1 0
    outer loop
      vertex 4.99261 7.8 13.4706
      vertex 1.15 7.8 2.65
      vertex 4.77057 7.8 13.6926
    endloop
  endfacet
  facet normal 0 1 0
    outer loop
      vertex 4.77057 7.8 13.6926
      vertex 1.15 7.8 2.65
      vertex 4.57295 7.8 13.9366
    endloop
  endfacet
  facet normal 0 1 0
    outer loop
      vertex 4.25936 7.8 14.4798
      vertex 1.15 7.8 2.65
      vertex 1.15 7.8 18.7
    endloop
  endfacet
  facet normal 1 -0 0
    outer loop
      vertex 8.15 7.8 18.7
      vertex 8.15 11.2 18.4676
      vertex 8.15 11.2 18.7
    endloop
  endfacet
  facet normal 1 0 0
    outer loop
      vertex 8.15 11.2 18.4676
      vertex 8.15 7.8 18.7
      vertex 8.15 7.8 18.4676
    endloop
  endfacet
  facet normal 1 -0 0
    outer loop
      vertex 8.15 7.8 12.9324
      vertex 8.15 11.2 2.65
      vertex 8.15 11.2 12.9324
    endloop
  endfacet
  facet normal 1 0 0
    outer loop
      vertex 8.15 11.2 2.65
      vertex 8.15 7.8 12.9324
      vertex 8.15 7.8 2.65
    endloop
  endfacet
  facet normal 0 -1 0
    outer loop
      vertex 8.22021 11.2 18.4406
      vertex 8.15 11.2 18.7
      vertex 8.15 11.2 18.4676
    endloop
  endfacet
  facet normal 0 -1 0
    outer loop
      vertex 8.5 11.2 18.2981
      vertex 8.15 11.2 18.7
      vertex 8.22021 11.2 18.4406
    endloop
  endfacet
  facet normal 0 -1 0
    outer loop
      vertex 8.76336 11.2 18.1271
      vertex 8.15 11.2 18.7
      vertex 8.5 11.2 18.2981
    endloop
  endfacet
  facet normal 0 -1 0
    outer loop
      vertex 8.15 11.2 18.7
      vertex 8.76336 11.2 18.1271
      vertex 12.85 11.2 18.7
    endloop
  endfacet
  facet normal 0 -1 0
    outer loop
      vertex 9.00739 11.2 17.9294
      vertex 12.85 11.2 18.7
      vertex 8.76336 11.2 18.1271
    endloop
  endfacet
  facet normal 0 -1 0
    outer loop
      vertex 9.22943 11.2 17.7074
      vertex 12.85 11.2 18.7
      vertex 9.00739 11.2 17.9294
    endloop
  endfacet
  facet normal 0 -1 0
    outer loop
      vertex 9.42705 11.2 17.4634
      vertex 12.85 11.2 18.7
      vertex 9.22943 11.2 17.7074
    endloop
  endfacet
  facet normal 0 -1 0
    outer loop
      vertex 9.59807 11.2 17.2
      vertex 12.85 11.2 18.7
      vertex 9.42705 11.2 17.4634
    endloop
  endfacet
  facet normal 0 -1 0
    outer loop
      vertex 9.74064 11.2 16.9202
      vertex 12.85 11.2 18.7
      vertex 9.59807 11.2 17.2
    endloop
  endfacet
  facet normal 0 -1 0
    outer loop
      vertex 9.85317 11.2 16.6271
      vertex 12.85 11.2 18.7
      vertex 9.74064 11.2 16.9202
    endloop
  endfacet
  facet normal 0 -1 0
    outer loop
      vertex 9.93444 11.2 16.3237
      vertex 12.85 11.2 18.7
      vertex 9.85317 11.2 16.6271
    endloop
  endfacet
  facet normal 0 -1 0
    outer loop
      vertex 9.98356 11.2 16.0136
      vertex 12.85 11.2 18.7
      vertex 9.93444 11.2 16.3237
    endloop
  endfacet
  facet normal 0 -1 0
    outer loop
      vertex 10 11.2 15.7
      vertex 12.85 11.2 18.7
      vertex 9.98356 11.2 16.0136
    endloop
  endfacet
  facet normal 0 -1 0
    outer loop
      vertex 9.98356 11.2 15.3864
      vertex 12.85 11.2 18.7
      vertex 10 11.2 15.7
    endloop
  endfacet
  facet normal 0 -1 0
    outer loop
      vertex 9.93444 11.2 15.0763
      vertex 12.85 11.2 18.7
      vertex 9.98356 11.2 15.3864
    endloop
  endfacet
  facet normal 0 -1 0
    outer loop
      vertex 9.85317 11.2 14.7729
      vertex 12.85 11.2 18.7
      vertex 9.93444 11.2 15.0763
    endloop
  endfacet
  facet normal 0 -1 0
    outer loop
      vertex 9.74064 11.2 14.4798
      vertex 12.85 11.2 18.7
      vertex 9.85317 11.2 14.7729
    endloop
  endfacet
  facet normal 0 -1 0
    outer loop
      vertex 12.85 11.2 2.65
      vertex 9.74064 11.2 14.4798
      vertex 9.59807 11.2 14.2
    endloop
  endfacet
  facet normal 0 -1 0
    outer loop
      vertex 12.85 11.2 2.65
      vertex 9.59807 11.2 14.2
      vertex 9.42705 11.2 13.9366
    endloop
  endfacet
  facet normal 0 -1 0
    outer loop
      vertex 8.15 11.2 2.65
      vertex 8.22021 11.2 12.9594
      vertex 8.15 11.2 12.9324
    endloop
  endfacet
  facet normal 0 -1 0
    outer loop
      vertex 12.85 11.2 2.65
      vertex 8.22021 11.2 12.9594
      vertex 8.15 11.2 2.65
    endloop
  endfacet
  facet normal 0 -1 0
    outer loop
      vertex 8.22021 11.2 12.9594
      vertex 12.85 11.2 2.65
      vertex 8.5 11.2 13.1019
    endloop
  endfacet
  facet normal 0 -1 0
    outer loop
      vertex 8.5 11.2 13.1019
      vertex 12.85 11.2 2.65
      vertex 8.76336 11.2 13.2729
    endloop
  endfacet
  facet normal 0 -1 0
    outer loop
      vertex 8.76336 11.2 13.2729
      vertex 12.85 11.2 2.65
      vertex 9.00739 11.2 13.4706
    endloop
  endfacet
  facet normal 0 -1 0
    outer loop
      vertex 9.00739 11.2 13.4706
      vertex 12.85 11.2 2.65
      vertex 9.22943 11.2 13.6926
    endloop
  endfacet
  facet normal 0 -1 0
    outer loop
      vertex 9.22943 11.2 13.6926
      vertex 12.85 11.2 2.65
      vertex 9.42705 11.2 13.9366
    endloop
  endfacet
  facet normal 0 -1 0
    outer loop
      vertex 9.74064 11.2 14.4798
      vertex 12.85 11.2 2.65
      vertex 12.85 11.2 18.7
    endloop
  endfacet
  facet normal 0 1 -0
    outer loop
      vertex 8.76336 7.8 18.1271
      vertex 8.15 7.8 18.7
      vertex 12.85 7.8 18.7
    endloop
  endfacet
  facet normal 0 1 0
    outer loop
      vertex 8.15 7.8 18.7
      vertex 8.22021 7.8 18.4406
      vertex 8.15 7.8 18.4676
    endloop
  endfacet
  facet normal 0 1 0
    outer loop
      vertex 8.15 7.8 18.7
      vertex 8.5 7.8 18.2981
      vertex 8.22021 7.8 18.4406
    endloop
  endfacet
  facet normal 0 1 0
    outer loop
      vertex 8.15 7.8 18.7
      vertex 8.76336 7.8 18.1271
      vertex 8.5 7.8 18.2981
    endloop
  endfacet
  facet normal 0 1 0
    outer loop
      vertex 12.85 7.8 18.7
      vertex 9.00739 7.8 17.9294
      vertex 8.76336 7.8 18.1271
    endloop
  endfacet
  facet normal 0 1 0
    outer loop
      vertex 12.85 7.8 18.7
      vertex 9.22943 7.8 17.7074
      vertex 9.00739 7.8 17.9294
    endloop
  endfacet
  facet normal 0 1 0
    outer loop
      vertex 12.85 7.8 18.7
      vertex 9.42705 7.8 17.4634
      vertex 9.22943 7.8 17.7074
    endloop
  endfacet
  facet normal 0 1 0
    outer loop
      vertex 12.85 7.8 18.7
      vertex 9.59807 7.8 17.2
      vertex 9.42705 7.8 17.4634
    endloop
  endfacet
  facet normal 0 1 0
    outer loop
      vertex 12.85 7.8 18.7
      vertex 9.74064 7.8 16.9202
      vertex 9.59807 7.8 17.2
    endloop
  endfacet
  facet normal 0 1 0
    outer loop
      vertex 12.85 7.8 18.7
      vertex 9.85317 7.8 16.6271
      vertex 9.74064 7.8 16.9202
    endloop
  endfacet
  facet normal 0 1 0
    outer loop
      vertex 12.85 7.8 18.7
      vertex 9.93444 7.8 16.3237
      vertex 9.85317 7.8 16.6271
    endloop
  endfacet
  facet normal 0 1 0
    outer loop
      vertex 12.85 7.8 18.7
      vertex 9.98356 7.8 16.0136
      vertex 9.93444 7.8 16.3237
    endloop
  endfacet
  facet normal 0 1 0
    outer loop
      vertex 12.85 7.8 18.7
      vertex 10 7.8 15.7
      vertex 9.98356 7.8 16.0136
    endloop
  endfacet
  facet normal 0 1 0
    outer loop
      vertex 12.85 7.8 18.7
      vertex 9.98356 7.8 15.3864
      vertex 10 7.8 15.7
    endloop
  endfacet
  facet normal 0 1 0
    outer loop
      vertex 12.85 7.8 18.7
      vertex 9.93444 7.8 15.0763
      vertex 9.98356 7.8 15.3864
    endloop
  endfacet
  facet normal 0 1 0
    outer loop
      vertex 12.85 7.8 18.7
      vertex 9.85317 7.8 14.7729
      vertex 9.93444 7.8 15.0763
    endloop
  endfacet
  facet normal 0 1 0
    outer loop
      vertex 12.85 7.8 18.7
      vertex 9.74064 7.8 14.4798
      vertex 9.85317 7.8 14.7729
    endloop
  endfacet
  facet normal 0 1 -0
    outer loop
      vertex 12.85 7.8 2.65
      vertex 9.74064 7.8 14.4798
      vertex 12.85 7.8 18.7
    endloop
  endfacet
  facet normal 0 1 0
    outer loop
      vertex 9.74064 7.8 14.4798
      vertex 12.85 7.8 2.65
      vertex 9.59807 7.8 14.2
    endloop
  endfacet
  facet normal 0 1 0
    outer loop
      vertex 9.59807 7.8 14.2
      vertex 12.85 7.8 2.65
      vertex 9.42705 7.8 13.9366
    endloop
  endfacet
  facet normal 0 1 0
    outer loop
      vertex 12.85 7.8 2.65
      vertex 9.22943 7.8 13.6926
      vertex 9.42705 7.8 13.9366
    endloop
  endfacet
  facet normal 0 1 0
    outer loop
      vertex 12.85 7.8 2.65
      vertex 9.00739 7.8 13.4706
      vertex 9.22943 7.8 13.6926
    endloop
  endfacet
  facet normal 0 1 0
    outer loop
      vertex 12.85 7.8 2.65
      vertex 8.76336 7.8 13.2729
      vertex 9.00739 7.8 13.4706
    endloop
  endfacet
  facet normal 0 1 0
    outer loop
      vertex 12.85 7.8 2.65
      vertex 8.5 7.8 13.1019
      vertex 8.76336 7.8 13.2729
    endloop
  endfacet
  facet normal 0 1 0
    outer loop
      vertex 12.85 7.8 2.65
      vertex 8.22021 7.8 12.9594
      vertex 8.5 7.8 13.1019
    endloop
  endfacet
  facet normal 0 1 0
    outer loop
      vertex 8.15 7.8 2.65
      vertex 8.22021 7.8 12.9594
      vertex 12.85 7.8 2.65
    endloop
  endfacet
  facet normal 0 1 0
    outer loop
      vertex 8.22021 7.8 12.9594
      vertex 8.15 7.8 2.65
      vertex 8.15 7.8 12.9324
    endloop
  endfacet
  facet normal 0.998629 -0 0.0523373
    outer loop
      vertex 9.98356 7.8 16.0136
      vertex 10 11.2 15.7
      vertex 9.98356 11.2 16.0136
    endloop
  endfacet
  facet normal 0.998629 0 0.0523373
    outer loop
      vertex 10 11.2 15.7
      vertex 9.98356 7.8 16.0136
      vertex 10 7.8 15.7
    endloop
  endfacet
  facet normal 0.987688 -0 0.156434
    outer loop
      vertex 9.93444 7.8 16.3237
      vertex 9.98356 11.2 16.0136
      vertex 9.93444 11.2 16.3237
    endloop
  endfacet
  facet normal 0.987688 0 0.156434
    outer loop
      vertex 9.98356 11.2 16.0136
      vertex 9.93444 7.8 16.3237
      vertex 9.98356 7.8 16.0136
    endloop
  endfacet
  facet normal -0.998629 0 0.0523373
    outer loop
      vertex 4 7.8 15.7
      vertex 4.01643 11.2 16.0136
      vertex 4 11.2 15.7
    endloop
  endfacet
  facet normal -0.998629 0 0.0523373
    outer loop
      vertex 4.01643 11.2 16.0136
      vertex 4 7.8 15.7
      vertex 4.01643 7.8 16.0136
    endloop
  endfacet
  facet normal 0.707105 0 0.707108
    outer loop
      vertex 9.00739 11.2 17.9294
      vertex 9.22943 7.8 17.7074
      vertex 9.22943 11.2 17.7074
    endloop
  endfacet
  facet normal 0.707105 0 0.707108
    outer loop
      vertex 9.22943 7.8 17.7074
      vertex 9.00739 11.2 17.9294
      vertex 9.00739 7.8 17.9294
    endloop
  endfacet
  facet normal 0.933581 -0 0.358366
    outer loop
      vertex 9.74064 7.8 16.9202
      vertex 9.85317 11.2 16.6271
      vertex 9.74064 11.2 16.9202
    endloop
  endfacet
  facet normal 0.933581 0 0.358366
    outer loop
      vertex 9.85317 11.2 16.6271
      vertex 9.74064 7.8 16.9202
      vertex 9.85317 7.8 16.6271
    endloop
  endfacet
  facet normal 0.544641 0 0.83867
    outer loop
      vertex 8.5 11.2 18.2981
      vertex 8.76336 7.8 18.1271
      vertex 8.76336 11.2 18.1271
    endloop
  endfacet
  facet normal 0.544641 0 0.83867
    outer loop
      vertex 8.76336 7.8 18.1271
      vertex 8.5 11.2 18.2981
      vertex 8.5 7.8 18.2981
    endloop
  endfacet
  facet normal -0.891007 0 0.453989
    outer loop
      vertex 4.25936 7.8 16.9202
      vertex 4.40192 11.2 17.2
      vertex 4.25936 11.2 16.9202
    endloop
  endfacet
  facet normal -0.891007 0 0.453989
    outer loop
      vertex 4.40192 11.2 17.2
      vertex 4.25936 7.8 16.9202
      vertex 4.40192 7.8 17.2
    endloop
  endfacet
  facet normal -0.707107 0 0.707107
    outer loop
      vertex 4.77057 7.8 17.7074
      vertex 4.99261 11.2 17.9294
      vertex 4.77057 11.2 17.7074
    endloop
  endfacet
  facet normal -0.707107 0 0.707107
    outer loop
      vertex 4.99261 11.2 17.9294
      vertex 4.77057 7.8 17.7074
      vertex 4.99261 7.8 17.9294
    endloop
  endfacet
  facet normal 0.838671 -0 0.544638
    outer loop
      vertex 9.42705 7.8 17.4634
      vertex 9.59807 11.2 17.2
      vertex 9.42705 11.2 17.4634
    endloop
  endfacet
  facet normal 0.838671 0 0.544638
    outer loop
      vertex 9.59807 11.2 17.2
      vertex 9.42705 7.8 17.4634
      vertex 9.59807 7.8 17.2
    endloop
  endfacet
  facet normal 0.891006 -0 0.453991
    outer loop
      vertex 9.59807 7.8 17.2
      vertex 9.74064 11.2 16.9202
      vertex 9.59807 11.2 17.2
    endloop
  endfacet
  facet normal 0.891006 0 0.453991
    outer loop
      vertex 9.74064 11.2 16.9202
      vertex 9.59807 7.8 17.2
      vertex 9.74064 7.8 16.9202
    endloop
  endfacet
  facet normal 0.629321 0 0.777145
    outer loop
      vertex 8.76336 11.2 18.1271
      vertex 9.00739 7.8 17.9294
      vertex 9.00739 11.2 17.9294
    endloop
  endfacet
  facet normal 0.629321 0 0.777145
    outer loop
      vertex 9.00739 7.8 17.9294
      vertex 8.76336 11.2 18.1271
      vertex 8.76336 7.8 18.1271
    endloop
  endfacet
  facet normal -0.965926 0 0.258818
    outer loop
      vertex 4.06556 7.8 16.3237
      vertex 4.14683 11.2 16.6271
      vertex 4.06556 11.2 16.3237
    endloop
  endfacet
  facet normal -0.965926 0 0.258818
    outer loop
      vertex 4.14683 11.2 16.6271
      vertex 4.06556 7.8 16.3237
      vertex 4.14683 7.8 16.6271
    endloop
  endfacet
  facet normal -0.777145 0 0.629321
    outer loop
      vertex 4.57295 7.8 17.4634
      vertex 4.77057 11.2 17.7074
      vertex 4.57295 11.2 17.4634
    endloop
  endfacet
  facet normal -0.777145 0 0.629321
    outer loop
      vertex 4.77057 11.2 17.7074
      vertex 4.57295 7.8 17.4634
      vertex 4.77057 7.8 17.7074
    endloop
  endfacet
  facet normal -0.93358 0 0.358368
    outer loop
      vertex 4.14683 7.8 16.6271
      vertex 4.25936 11.2 16.9202
      vertex 4.14683 11.2 16.6271
    endloop
  endfacet
  facet normal -0.93358 0 0.358368
    outer loop
      vertex 4.25936 11.2 16.9202
      vertex 4.14683 7.8 16.6271
      vertex 4.25936 7.8 16.9202
    endloop
  endfacet
  facet normal -0.453988 0 0.891008
    outer loop
      vertex 5.5 11.2 18.2981
      vertex 5.77979 7.8 18.4406
      vertex 5.77979 11.2 18.4406
    endloop
  endfacet
  facet normal -0.453988 0 0.891008
    outer loop
      vertex 5.77979 7.8 18.4406
      vertex 5.5 11.2 18.2981
      vertex 5.5 7.8 18.2981
    endloop
  endfacet
  facet normal -0.358363 0 0.933582
    outer loop
      vertex 5.77979 11.2 18.4406
      vertex 5.85 7.8 18.4676
      vertex 5.85 11.2 18.4676
    endloop
  endfacet
  facet normal -0.358363 0 0.933582
    outer loop
      vertex 5.85 7.8 18.4676
      vertex 5.77979 11.2 18.4406
      vertex 5.77979 7.8 18.4406
    endloop
  endfacet
  facet normal 0.987688 0 -0.156434
    outer loop
      vertex 9.98356 7.8 15.3864
      vertex 9.93444 11.2 15.0763
      vertex 9.98356 11.2 15.3864
    endloop
  endfacet
  facet normal 0.987688 0 -0.156434
    outer loop
      vertex 9.93444 11.2 15.0763
      vertex 9.98356 7.8 15.3864
      vertex 9.93444 7.8 15.0763
    endloop
  endfacet
  facet normal 0.998629 0 -0.0523371
    outer loop
      vertex 10 7.8 15.7
      vertex 9.98356 11.2 15.3864
      vertex 10 11.2 15.7
    endloop
  endfacet
  facet normal 0.998629 0 -0.0523371
    outer loop
      vertex 9.98356 11.2 15.3864
      vertex 10 7.8 15.7
      vertex 9.98356 7.8 15.3864
    endloop
  endfacet
  facet normal -0.62932 0 -0.777147
    outer loop
      vertex 4.99261 7.8 13.4706
      vertex 5.23664 11.2 13.2729
      vertex 5.23664 7.8 13.2729
    endloop
  endfacet
  facet normal -0.62932 0 -0.777147
    outer loop
      vertex 5.23664 11.2 13.2729
      vertex 4.99261 7.8 13.4706
      vertex 4.99261 11.2 13.4706
    endloop
  endfacet
  facet normal -0.891007 0 -0.45399
    outer loop
      vertex 4.40192 7.8 14.2
      vertex 4.25936 11.2 14.4798
      vertex 4.40192 11.2 14.2
    endloop
  endfacet
  facet normal -0.891007 -0 -0.45399
    outer loop
      vertex 4.25936 11.2 14.4798
      vertex 4.40192 7.8 14.2
      vertex 4.25936 7.8 14.4798
    endloop
  endfacet
  facet normal -0.777145 0 -0.629321
    outer loop
      vertex 4.77057 7.8 13.6926
      vertex 4.57295 11.2 13.9366
      vertex 4.77057 11.2 13.6926
    endloop
  endfacet
  facet normal -0.777145 -0 -0.629321
    outer loop
      vertex 4.57295 11.2 13.9366
      vertex 4.77057 7.8 13.6926
      vertex 4.57295 7.8 13.9366
    endloop
  endfacet
  facet normal 0.965926 -0 0.258818
    outer loop
      vertex 9.85317 7.8 16.6271
      vertex 9.93444 11.2 16.3237
      vertex 9.85317 11.2 16.6271
    endloop
  endfacet
  facet normal 0.965926 0 0.258818
    outer loop
      vertex 9.93444 11.2 16.3237
      vertex 9.85317 7.8 16.6271
      vertex 9.93444 7.8 16.3237
    endloop
  endfacet
  facet normal 0.777145 -0 0.629321
    outer loop
      vertex 9.22943 7.8 17.7074
      vertex 9.42705 11.2 17.4634
      vertex 9.22943 11.2 17.7074
    endloop
  endfacet
  facet normal 0.777145 0 0.629321
    outer loop
      vertex 9.42705 11.2 17.4634
      vertex 9.22943 7.8 17.7074
      vertex 9.42705 7.8 17.4634
    endloop
  endfacet
  facet normal 0.453988 0 0.891008
    outer loop
      vertex 8.22021 11.2 18.4406
      vertex 8.5 7.8 18.2981
      vertex 8.5 11.2 18.2981
    endloop
  endfacet
  facet normal 0.453988 0 0.891008
    outer loop
      vertex 8.5 7.8 18.2981
      vertex 8.22021 11.2 18.4406
      vertex 8.22021 7.8 18.4406
    endloop
  endfacet
  facet normal 0.358367 0 0.933581
    outer loop
      vertex 8.15 11.2 18.4676
      vertex 8.22021 7.8 18.4406
      vertex 8.22021 11.2 18.4406
    endloop
  endfacet
  facet normal 0.358367 0 0.933581
    outer loop
      vertex 8.22021 7.8 18.4406
      vertex 8.15 11.2 18.4676
      vertex 8.15 7.8 18.4676
    endloop
  endfacet
  facet normal -0.83867 0 0.54464
    outer loop
      vertex 4.40192 7.8 17.2
      vertex 4.57295 11.2 17.4634
      vertex 4.40192 11.2 17.2
    endloop
  endfacet
  facet normal -0.83867 0 0.54464
    outer loop
      vertex 4.57295 11.2 17.4634
      vertex 4.40192 7.8 17.2
      vertex 4.57295 7.8 17.4634
    endloop
  endfacet
  facet normal -0.987688 0 0.156434
    outer loop
      vertex 4.01643 7.8 16.0136
      vertex 4.06556 11.2 16.3237
      vertex 4.01643 11.2 16.0136
    endloop
  endfacet
  facet normal -0.987688 0 0.156434
    outer loop
      vertex 4.06556 11.2 16.3237
      vertex 4.01643 7.8 16.0136
      vertex 4.06556 7.8 16.3237
    endloop
  endfacet
  facet normal -0.544642 0 0.838669
    outer loop
      vertex 5.23664 11.2 18.1271
      vertex 5.5 7.8 18.2981
      vertex 5.5 11.2 18.2981
    endloop
  endfacet
  facet normal -0.544642 0 0.838669
    outer loop
      vertex 5.5 7.8 18.2981
      vertex 5.23664 11.2 18.1271
      vertex 5.23664 7.8 18.1271
    endloop
  endfacet
  facet normal -0.62932 0 0.777147
    outer loop
      vertex 4.99261 11.2 17.9294
      vertex 5.23664 7.8 18.1271
      vertex 5.23664 11.2 18.1271
    endloop
  endfacet
  facet normal -0.62932 0 0.777147
    outer loop
      vertex 5.23664 7.8 18.1271
      vertex 4.99261 11.2 17.9294
      vertex 4.99261 7.8 17.9294
    endloop
  endfacet
  facet normal 0.965926 0 -0.258818
    outer loop
      vertex 9.93444 7.8 15.0763
      vertex 9.85317 11.2 14.7729
      vertex 9.93444 11.2 15.0763
    endloop
  endfacet
  facet normal 0.965926 0 -0.258818
    outer loop
      vertex 9.85317 11.2 14.7729
      vertex 9.93444 7.8 15.0763
      vertex 9.85317 7.8 14.7729
    endloop
  endfacet
  facet normal 0.777145 0 -0.629321
    outer loop
      vertex 9.42705 7.8 13.9366
      vertex 9.22943 11.2 13.6926
      vertex 9.42705 11.2 13.9366
    endloop
  endfacet
  facet normal 0.777145 0 -0.629321
    outer loop
      vertex 9.22943 11.2 13.6926
      vertex 9.42705 7.8 13.9366
      vertex 9.22943 7.8 13.6926
    endloop
  endfacet
  facet normal 0.544638 0 -0.838671
    outer loop
      vertex 8.5 7.8 13.1019
      vertex 8.76336 11.2 13.2729
      vertex 8.76336 7.8 13.2729
    endloop
  endfacet
  facet normal 0.544638 0 -0.838671
    outer loop
      vertex 8.76336 11.2 13.2729
      vertex 8.5 7.8 13.1019
      vertex 8.5 11.2 13.1019
    endloop
  endfacet
  facet normal -0.838671 0 -0.544638
    outer loop
      vertex 4.57295 7.8 13.9366
      vertex 4.40192 11.2 14.2
      vertex 4.57295 11.2 13.9366
    endloop
  endfacet
  facet normal -0.838671 -0 -0.544638
    outer loop
      vertex 4.40192 11.2 14.2
      vertex 4.57295 7.8 13.9366
      vertex 4.40192 7.8 14.2
    endloop
  endfacet
  facet normal -0.707108 0 -0.707105
    outer loop
      vertex 4.99261 7.8 13.4706
      vertex 4.77057 11.2 13.6926
      vertex 4.99261 11.2 13.4706
    endloop
  endfacet
  facet normal -0.707108 -0 -0.707105
    outer loop
      vertex 4.77057 11.2 13.6926
      vertex 4.99261 7.8 13.4706
      vertex 4.77057 7.8 13.6926
    endloop
  endfacet
  facet normal -0.965926 0 -0.258818
    outer loop
      vertex 4.14683 7.8 14.7729
      vertex 4.06556 11.2 15.0763
      vertex 4.14683 11.2 14.7729
    endloop
  endfacet
  facet normal -0.965926 -0 -0.258818
    outer loop
      vertex 4.06556 11.2 15.0763
      vertex 4.14683 7.8 14.7729
      vertex 4.06556 7.8 15.0763
    endloop
  endfacet
  facet normal -0.987688 0 -0.156434
    outer loop
      vertex 4.06556 7.8 15.0763
      vertex 4.01643 11.2 15.3864
      vertex 4.06556 11.2 15.0763
    endloop
  endfacet
  facet normal -0.987688 -0 -0.156434
    outer loop
      vertex 4.01643 11.2 15.3864
      vertex 4.06556 7.8 15.0763
      vertex 4.01643 7.8 15.3864
    endloop
  endfacet
  facet normal -0.93358 0 -0.358369
    outer loop
      vertex 4.25936 7.8 14.4798
      vertex 4.14683 11.2 14.7729
      vertex 4.25936 11.2 14.4798
    endloop
  endfacet
  facet normal -0.93358 -0 -0.358369
    outer loop
      vertex 4.14683 11.2 14.7729
      vertex 4.25936 7.8 14.4798
      vertex 4.14683 7.8 14.7729
    endloop
  endfacet
  facet normal -0.998629 0 -0.0523371
    outer loop
      vertex 4.01643 7.8 15.3864
      vertex 4 11.2 15.7
      vertex 4.01643 11.2 15.3864
    endloop
  endfacet
  facet normal -0.998629 -0 -0.0523371
    outer loop
      vertex 4 11.2 15.7
      vertex 4.01643 7.8 15.3864
      vertex 4 7.8 15.7
    endloop
  endfacet
  facet normal 0.45399 0 -0.891007
    outer loop
      vertex 8.22021 7.8 12.9594
      vertex 8.5 11.2 13.1019
      vertex 8.5 7.8 13.1019
    endloop
  endfacet
  facet normal 0.45399 0 -0.891007
    outer loop
      vertex 8.5 11.2 13.1019
      vertex 8.22021 7.8 12.9594
      vertex 8.22021 11.2 12.9594
    endloop
  endfacet
  facet normal 0.933581 0 -0.358367
    outer loop
      vertex 9.85317 7.8 14.7729
      vertex 9.74064 11.2 14.4798
      vertex 9.85317 11.2 14.7729
    endloop
  endfacet
  facet normal 0.933581 0 -0.358367
    outer loop
      vertex 9.74064 11.2 14.4798
      vertex 9.85317 7.8 14.7729
      vertex 9.74064 7.8 14.4798
    endloop
  endfacet
  facet normal 0.838672 0 -0.544636
    outer loop
      vertex 9.59807 7.8 14.2
      vertex 9.42705 11.2 13.9366
      vertex 9.59807 11.2 14.2
    endloop
  endfacet
  facet normal 0.838672 0 -0.544636
    outer loop
      vertex 9.42705 11.2 13.9366
      vertex 9.59807 7.8 14.2
      vertex 9.42705 7.8 13.9366
    endloop
  endfacet
  facet normal 0.891005 0 -0.453993
    outer loop
      vertex 9.74064 7.8 14.4798
      vertex 9.59807 11.2 14.2
      vertex 9.74064 11.2 14.4798
    endloop
  endfacet
  facet normal 0.891005 0 -0.453993
    outer loop
      vertex 9.59807 11.2 14.2
      vertex 9.74064 7.8 14.4798
      vertex 9.59807 7.8 14.2
    endloop
  endfacet
  facet normal 0.358367 0 -0.933581
    outer loop
      vertex 8.15 7.8 12.9324
      vertex 8.22021 11.2 12.9594
      vertex 8.22021 7.8 12.9594
    endloop
  endfacet
  facet normal 0.358367 0 -0.933581
    outer loop
      vertex 8.22021 11.2 12.9594
      vertex 8.15 7.8 12.9324
      vertex 8.15 11.2 12.9324
    endloop
  endfacet
  facet normal 0.629321 0 -0.777145
    outer loop
      vertex 8.76336 7.8 13.2729
      vertex 9.00739 11.2 13.4706
      vertex 9.00739 7.8 13.4706
    endloop
  endfacet
  facet normal 0.629321 0 -0.777145
    outer loop
      vertex 9.00739 11.2 13.4706
      vertex 8.76336 7.8 13.2729
      vertex 8.76336 11.2 13.2729
    endloop
  endfacet
  facet normal 0.707107 0 -0.707107
    outer loop
      vertex 9.22943 7.8 13.6926
      vertex 9.00739 11.2 13.4706
      vertex 9.22943 11.2 13.6926
    endloop
  endfacet
  facet normal 0.707107 0 -0.707107
    outer loop
      vertex 9.00739 11.2 13.4706
      vertex 9.22943 7.8 13.6926
      vertex 9.00739 7.8 13.4706
    endloop
  endfacet
  facet normal -0.45399 0 -0.891007
    outer loop
      vertex 5.5 7.8 13.1019
      vertex 5.77979 11.2 12.9594
      vertex 5.77979 7.8 12.9594
    endloop
  endfacet
  facet normal -0.45399 0 -0.891007
    outer loop
      vertex 5.77979 11.2 12.9594
      vertex 5.5 7.8 13.1019
      vertex 5.5 11.2 13.1019
    endloop
  endfacet
  facet normal -0.54464 0 -0.83867
    outer loop
      vertex 5.23664 7.8 13.2729
      vertex 5.5 11.2 13.1019
      vertex 5.5 7.8 13.1019
    endloop
  endfacet
  facet normal -0.54464 0 -0.83867
    outer loop
      vertex 5.5 11.2 13.1019
      vertex 5.23664 7.8 13.2729
      vertex 5.23664 11.2 13.2729
    endloop
  endfacet
  facet normal -0.358363 0 -0.933582
    outer loop
      vertex 5.77979 7.8 12.9594
      vertex 5.85 11.2 12.9324
      vertex 5.85 7.8 12.9324
    endloop
  endfacet
  facet normal -0.358363 0 -0.933582
    outer loop
      vertex 5.85 11.2 12.9324
      vertex 5.77979 7.8 12.9594
      vertex 5.77979 11.2 12.9594
    endloop
  endfacet
  facet normal -0.998629 0 -0.0523372
    outer loop
      vertex 8.15 5.5 15.7
      vertex 8.1437 13.5 15.8202
      vertex 8.15 13.5 15.7
    endloop
  endfacet
  facet normal -0.998629 -0 -0.0523372
    outer loop
      vertex 8.1437 13.5 15.8202
      vertex 8.15 5.5 15.7
      vertex 8.1437 5.5 15.8202
    endloop
  endfacet
  facet normal -0.987689 0 -0.156433
    outer loop
      vertex 8.1437 5.5 15.8202
      vertex 8.12487 13.5 15.9391
      vertex 8.1437 13.5 15.8202
    endloop
  endfacet
  facet normal -0.987689 -0 -0.156433
    outer loop
      vertex 8.12487 13.5 15.9391
      vertex 8.1437 5.5 15.8202
      vertex 8.12487 5.5 15.9391
    endloop
  endfacet
  facet normal 0.998629 0 -0.0523372
    outer loop
      vertex 5.8563 5.5 15.8202
      vertex 5.85 13.5 15.7
      vertex 5.8563 13.5 15.8202
    endloop
  endfacet
  facet normal 0.998629 0 -0.0523372
    outer loop
      vertex 5.85 13.5 15.7
      vertex 5.8563 5.5 15.8202
      vertex 5.85 5.5 15.7
    endloop
  endfacet
  facet normal -0.0523214 0 -0.99863
    outer loop
      vertex 7 5.5 16.85
      vertex 7.12021 13.5 16.8437
      vertex 7.12021 5.5 16.8437
    endloop
  endfacet
  facet normal -0.0523214 0 -0.99863
    outer loop
      vertex 7.12021 13.5 16.8437
      vertex 7 5.5 16.85
      vertex 7 13.5 16.85
    endloop
  endfacet
  facet normal -0.707103 0 -0.707111
    outer loop
      vertex 7.7695 5.5 16.5546
      vertex 7.85462 13.5 16.4695
      vertex 7.85462 5.5 16.4695
    endloop
  endfacet
  facet normal -0.707103 0 -0.707111
    outer loop
      vertex 7.85462 13.5 16.4695
      vertex 7.7695 5.5 16.5546
      vertex 7.7695 13.5 16.5546
    endloop
  endfacet
  facet normal 0.629327 0 -0.77714
    outer loop
      vertex 6.2305 5.5 16.5546
      vertex 6.32405 13.5 16.6304
      vertex 6.32405 5.5 16.6304
    endloop
  endfacet
  facet normal 0.629327 0 -0.77714
    outer loop
      vertex 6.32405 13.5 16.6304
      vertex 6.2305 5.5 16.5546
      vertex 6.2305 13.5 16.5546
    endloop
  endfacet
  facet normal -0.0523372 0 0.998629
    outer loop
      vertex 7 13.5 14.55
      vertex 7.12021 5.5 14.5563
      vertex 7.12021 13.5 14.5563
    endloop
  endfacet
  facet normal -0.0523372 0 0.998629
    outer loop
      vertex 7.12021 5.5 14.5563
      vertex 7 13.5 14.55
      vertex 7 5.5 14.55
    endloop
  endfacet
  facet normal -0.891009 0 -0.453986
    outer loop
      vertex 8.05058 5.5 16.1677
      vertex 7.99593 13.5 16.275
      vertex 8.05058 13.5 16.1677
    endloop
  endfacet
  facet normal -0.891009 -0 -0.453986
    outer loop
      vertex 7.99593 13.5 16.275
      vertex 8.05058 5.5 16.1677
      vertex 7.99593 5.5 16.275
    endloop
  endfacet
  facet normal -0.629324 0 -0.777143
    outer loop
      vertex 7.67595 5.5 16.6304
      vertex 7.7695 13.5 16.5546
      vertex 7.7695 5.5 16.5546
    endloop
  endfacet
  facet normal -0.629324 0 -0.777143
    outer loop
      vertex 7.7695 13.5 16.5546
      vertex 7.67595 5.5 16.6304
      vertex 7.67595 13.5 16.6304
    endloop
  endfacet
  facet normal 0.891004 0 -0.453995
    outer loop
      vertex 6.00407 5.5 16.275
      vertex 5.94942 13.5 16.1677
      vertex 6.00407 13.5 16.275
    endloop
  endfacet
  facet normal 0.891004 0 -0.453995
    outer loop
      vertex 5.94942 13.5 16.1677
      vertex 6.00407 5.5 16.275
      vertex 5.94942 5.5 16.1677
    endloop
  endfacet
  facet normal 0.707103 0 -0.707111
    outer loop
      vertex 6.14538 5.5 16.4695
      vertex 6.2305 13.5 16.5546
      vertex 6.2305 5.5 16.5546
    endloop
  endfacet
  facet normal 0.707103 0 -0.707111
    outer loop
      vertex 6.2305 13.5 16.5546
      vertex 6.14538 5.5 16.4695
      vertex 6.14538 13.5 16.4695
    endloop
  endfacet
  facet normal 0.156441 0 -0.987687
    outer loop
      vertex 6.7609 5.5 16.8249
      vertex 6.87979 13.5 16.8437
      vertex 6.87979 5.5 16.8437
    endloop
  endfacet
  facet normal 0.156441 0 -0.987687
    outer loop
      vertex 6.87979 13.5 16.8437
      vertex 6.7609 5.5 16.8249
      vertex 6.7609 13.5 16.8249
    endloop
  endfacet
  facet normal -0.777151 0 0.629314
    outer loop
      vertex 7.85462 5.5 14.9305
      vertex 7.93037 13.5 15.024
      vertex 7.85462 13.5 14.9305
    endloop
  endfacet
  facet normal -0.777151 0 0.629314
    outer loop
      vertex 7.93037 13.5 15.024
      vertex 7.85462 5.5 14.9305
      vertex 7.93037 5.5 15.024
    endloop
  endfacet
  facet normal 0.707107 -0 0.707107
    outer loop
      vertex 6.14538 5.5 14.9305
      vertex 6.2305 13.5 14.8454
      vertex 6.14538 13.5 14.9305
    endloop
  endfacet
  facet normal 0.707107 0 0.707107
    outer loop
      vertex 6.2305 13.5 14.8454
      vertex 6.14538 5.5 14.9305
      vertex 6.2305 5.5 14.8454
    endloop
  endfacet
  facet normal -0.965925 0 -0.258824
    outer loop
      vertex 8.12487 5.5 15.9391
      vertex 8.09371 13.5 16.0554
      vertex 8.12487 13.5 15.9391
    endloop
  endfacet
  facet normal -0.965925 -0 -0.258824
    outer loop
      vertex 8.09371 13.5 16.0554
      vertex 8.12487 5.5 15.9391
      vertex 8.09371 5.5 16.0554
    endloop
  endfacet
  facet normal -0.777145 0 -0.629322
    outer loop
      vertex 7.93037 5.5 16.376
      vertex 7.85462 13.5 16.4695
      vertex 7.93037 13.5 16.376
    endloop
  endfacet
  facet normal -0.777145 -0 -0.629322
    outer loop
      vertex 7.85462 13.5 16.4695
      vertex 7.93037 5.5 16.376
      vertex 7.85462 5.5 16.4695
    endloop
  endfacet
  facet normal -0.838671 0 -0.544639
    outer loop
      vertex 7.99593 5.5 16.275
      vertex 7.93037 13.5 16.376
      vertex 7.99593 13.5 16.275
    endloop
  endfacet
  facet normal -0.838671 -0 -0.544639
    outer loop
      vertex 7.93037 13.5 16.376
      vertex 7.99593 5.5 16.275
      vertex 7.93037 5.5 16.376
    endloop
  endfacet
  facet normal -0.258818 0 -0.965926
    outer loop
      vertex 7.2391 5.5 16.8249
      vertex 7.35537 13.5 16.7937
      vertex 7.35537 5.5 16.7937
    endloop
  endfacet
  facet normal -0.258818 0 -0.965926
    outer loop
      vertex 7.35537 13.5 16.7937
      vertex 7.2391 5.5 16.8249
      vertex 7.2391 13.5 16.8249
    endloop
  endfacet
  facet normal -0.358372 0 -0.933579
    outer loop
      vertex 7.35537 5.5 16.7937
      vertex 7.46775 13.5 16.7506
      vertex 7.46775 5.5 16.7506
    endloop
  endfacet
  facet normal -0.358372 0 -0.933579
    outer loop
      vertex 7.46775 13.5 16.7506
      vertex 7.35537 5.5 16.7937
      vertex 7.35537 13.5 16.7937
    endloop
  endfacet
  facet normal 0.965927 0 -0.258816
    outer loop
      vertex 5.90628 5.5 16.0554
      vertex 5.87513 13.5 15.9391
      vertex 5.90628 13.5 16.0554
    endloop
  endfacet
  facet normal 0.965927 0 -0.258816
    outer loop
      vertex 5.87513 13.5 15.9391
      vertex 5.90628 5.5 16.0554
      vertex 5.87513 5.5 15.9391
    endloop
  endfacet
  facet normal 0.777141 0 -0.629327
    outer loop
      vertex 6.14538 5.5 16.4695
      vertex 6.06963 13.5 16.376
      vertex 6.14538 13.5 16.4695
    endloop
  endfacet
  facet normal 0.777141 0 -0.629327
    outer loop
      vertex 6.06963 13.5 16.376
      vertex 6.14538 5.5 16.4695
      vertex 6.06963 5.5 16.376
    endloop
  endfacet
  facet normal 0.93358 0 -0.358368
    outer loop
      vertex 5.94942 5.5 16.1677
      vertex 5.90628 13.5 16.0554
      vertex 5.94942 13.5 16.1677
    endloop
  endfacet
  facet normal 0.93358 0 -0.358368
    outer loop
      vertex 5.90628 13.5 16.0554
      vertex 5.94942 5.5 16.1677
      vertex 5.90628 5.5 16.0554
    endloop
  endfacet
  facet normal 0.453986 0 -0.891009
    outer loop
      vertex 6.425 5.5 16.6959
      vertex 6.53225 13.5 16.7506
      vertex 6.53225 5.5 16.7506
    endloop
  endfacet
  facet normal 0.453986 0 -0.891009
    outer loop
      vertex 6.53225 13.5 16.7506
      vertex 6.425 5.5 16.6959
      vertex 6.425 13.5 16.6959
    endloop
  endfacet
  facet normal 0.544637 0 -0.838672
    outer loop
      vertex 6.32405 5.5 16.6304
      vertex 6.425 13.5 16.6959
      vertex 6.425 5.5 16.6959
    endloop
  endfacet
  facet normal 0.544637 0 -0.838672
    outer loop
      vertex 6.425 13.5 16.6959
      vertex 6.32405 5.5 16.6304
      vertex 6.32405 13.5 16.6304
    endloop
  endfacet
  facet normal 0.0523214 0 -0.99863
    outer loop
      vertex 6.87979 5.5 16.8437
      vertex 7 13.5 16.85
      vertex 7 5.5 16.85
    endloop
  endfacet
  facet normal 0.0523214 0 -0.99863
    outer loop
      vertex 7 13.5 16.85
      vertex 6.87979 5.5 16.8437
      vertex 6.87979 13.5 16.8437
    endloop
  endfacet
  facet normal -0.453989 0 0.891007
    outer loop
      vertex 7.46775 13.5 14.6494
      vertex 7.575 5.5 14.7041
      vertex 7.575 13.5 14.7041
    endloop
  endfacet
  facet normal -0.453989 0 0.891007
    outer loop
      vertex 7.575 5.5 14.7041
      vertex 7.46775 13.5 14.6494
      vertex 7.46775 5.5 14.6494
    endloop
  endfacet
  facet normal -0.965924 0 0.258826
    outer loop
      vertex 8.09371 5.5 15.3446
      vertex 8.12487 13.5 15.4609
      vertex 8.09371 13.5 15.3446
    endloop
  endfacet
  facet normal -0.965924 0 0.258826
    outer loop
      vertex 8.12487 13.5 15.4609
      vertex 8.09371 5.5 15.3446
      vertex 8.12487 5.5 15.4609
    endloop
  endfacet
  facet normal 0.358375 0 0.933578
    outer loop
      vertex 6.53225 13.5 14.6494
      vertex 6.64463 5.5 14.6063
      vertex 6.64463 13.5 14.6063
    endloop
  endfacet
  facet normal 0.358375 0 0.933578
    outer loop
      vertex 6.64463 5.5 14.6063
      vertex 6.53225 13.5 14.6494
      vertex 6.53225 5.5 14.6494
    endloop
  endfacet
  facet normal 0.891004 -0 0.453995
    outer loop
      vertex 5.94942 5.5 15.2323
      vertex 6.00407 13.5 15.125
      vertex 5.94942 13.5 15.2323
    endloop
  endfacet
  facet normal 0.891004 0 0.453995
    outer loop
      vertex 6.00407 13.5 15.125
      vertex 5.94942 5.5 15.2323
      vertex 6.00407 5.5 15.125
    endloop
  endfacet
  facet normal 0.777147 -0 0.629319
    outer loop
      vertex 6.06963 5.5 15.024
      vertex 6.14538 13.5 14.9305
      vertex 6.06963 13.5 15.024
    endloop
  endfacet
  facet normal 0.777147 0 0.629319
    outer loop
      vertex 6.14538 13.5 14.9305
      vertex 6.06963 5.5 15.024
      vertex 6.14538 5.5 14.9305
    endloop
  endfacet
  facet normal 0.965926 -0 0.258818
    outer loop
      vertex 5.87513 5.5 15.4609
      vertex 5.90628 13.5 15.3446
      vertex 5.87513 13.5 15.4609
    endloop
  endfacet
  facet normal 0.965926 0 0.258818
    outer loop
      vertex 5.90628 13.5 15.3446
      vertex 5.87513 5.5 15.4609
      vertex 5.90628 5.5 15.3446
    endloop
  endfacet
  facet normal 0.998629 -0 0.0523372
    outer loop
      vertex 5.85 5.5 15.7
      vertex 5.8563 13.5 15.5798
      vertex 5.85 13.5 15.7
    endloop
  endfacet
  facet normal 0.998629 0 0.0523372
    outer loop
      vertex 5.8563 13.5 15.5798
      vertex 5.85 5.5 15.7
      vertex 5.8563 5.5 15.5798
    endloop
  endfacet
  facet normal -0.93358 0 -0.358368
    outer loop
      vertex 8.09371 5.5 16.0554
      vertex 8.05058 13.5 16.1677
      vertex 8.09371 13.5 16.0554
    endloop
  endfacet
  facet normal -0.93358 -0 -0.358368
    outer loop
      vertex 8.05058 13.5 16.1677
      vertex 8.09371 5.5 16.0554
      vertex 8.05058 5.5 16.1677
    endloop
  endfacet
  facet normal -0.156441 0 -0.987687
    outer loop
      vertex 7.12021 5.5 16.8437
      vertex 7.2391 13.5 16.8249
      vertex 7.2391 5.5 16.8249
    endloop
  endfacet
  facet normal -0.156441 0 -0.987687
    outer loop
      vertex 7.2391 13.5 16.8249
      vertex 7.12021 5.5 16.8437
      vertex 7.12021 13.5 16.8437
    endloop
  endfacet
  facet normal -0.544637 0 -0.838672
    outer loop
      vertex 7.575 5.5 16.6959
      vertex 7.67595 13.5 16.6304
      vertex 7.67595 5.5 16.6304
    endloop
  endfacet
  facet normal -0.544637 0 -0.838672
    outer loop
      vertex 7.67595 13.5 16.6304
      vertex 7.575 5.5 16.6959
      vertex 7.575 13.5 16.6959
    endloop
  endfacet
  facet normal -0.453989 0 -0.891007
    outer loop
      vertex 7.46775 5.5 16.7506
      vertex 7.575 13.5 16.6959
      vertex 7.575 5.5 16.6959
    endloop
  endfacet
  facet normal -0.453989 0 -0.891007
    outer loop
      vertex 7.575 13.5 16.6959
      vertex 7.46775 5.5 16.7506
      vertex 7.46775 13.5 16.7506
    endloop
  endfacet
  facet normal 0.838674 0 -0.544634
    outer loop
      vertex 6.06963 5.5 16.376
      vertex 6.00407 13.5 16.275
      vertex 6.06963 13.5 16.376
    endloop
  endfacet
  facet normal 0.838674 0 -0.544634
    outer loop
      vertex 6.00407 13.5 16.275
      vertex 6.06963 5.5 16.376
      vertex 6.00407 5.5 16.275
    endloop
  endfacet
  facet normal 0.987689 0 -0.156433
    outer loop
      vertex 5.87513 5.5 15.9391
      vertex 5.8563 13.5 15.8202
      vertex 5.87513 13.5 15.9391
    endloop
  endfacet
  facet normal 0.987689 0 -0.156433
    outer loop
      vertex 5.8563 13.5 15.8202
      vertex 5.87513 5.5 15.9391
      vertex 5.8563 5.5 15.8202
    endloop
  endfacet
  facet normal 0.258818 0 -0.965926
    outer loop
      vertex 6.64463 5.5 16.7937
      vertex 6.7609 13.5 16.8249
      vertex 6.7609 5.5 16.8249
    endloop
  endfacet
  facet normal 0.258818 0 -0.965926
    outer loop
      vertex 6.7609 13.5 16.8249
      vertex 6.64463 5.5 16.7937
      vertex 6.64463 13.5 16.7937
    endloop
  endfacet
  facet normal 0.358375 0 -0.933578
    outer loop
      vertex 6.53225 5.5 16.7506
      vertex 6.64463 13.5 16.7937
      vertex 6.64463 5.5 16.7937
    endloop
  endfacet
  facet normal 0.358375 0 -0.933578
    outer loop
      vertex 6.64463 13.5 16.7937
      vertex 6.53225 5.5 16.7506
      vertex 6.53225 13.5 16.7506
    endloop
  endfacet
  facet normal -0.156433 0 0.987689
    outer loop
      vertex 7.12021 13.5 14.5563
      vertex 7.2391 5.5 14.5751
      vertex 7.2391 13.5 14.5751
    endloop
  endfacet
  facet normal -0.156433 0 0.987689
    outer loop
      vertex 7.2391 5.5 14.5751
      vertex 7.12021 13.5 14.5563
      vertex 7.12021 5.5 14.5563
    endloop
  endfacet
  facet normal -0.258818 0 0.965926
    outer loop
      vertex 7.2391 13.5 14.5751
      vertex 7.35537 5.5 14.6063
      vertex 7.35537 13.5 14.6063
    endloop
  endfacet
  facet normal -0.258818 0 0.965926
    outer loop
      vertex 7.35537 5.5 14.6063
      vertex 7.2391 13.5 14.5751
      vertex 7.2391 5.5 14.5751
    endloop
  endfacet
  facet normal -0.358372 0 0.933579
    outer loop
      vertex 7.35537 13.5 14.6063
      vertex 7.46775 5.5 14.6494
      vertex 7.46775 13.5 14.6494
    endloop
  endfacet
  facet normal -0.358372 0 0.933579
    outer loop
      vertex 7.46775 5.5 14.6494
      vertex 7.35537 13.5 14.6063
      vertex 7.35537 5.5 14.6063
    endloop
  endfacet
  facet normal -0.629314 0 0.777151
    outer loop
      vertex 7.67595 13.5 14.7696
      vertex 7.7695 5.5 14.8454
      vertex 7.7695 13.5 14.8454
    endloop
  endfacet
  facet normal -0.629314 0 0.777151
    outer loop
      vertex 7.7695 5.5 14.8454
      vertex 7.67595 13.5 14.7696
      vertex 7.67595 5.5 14.7696
    endloop
  endfacet
  facet normal -0.707107 0 0.707107
    outer loop
      vertex 7.7695 5.5 14.8454
      vertex 7.85462 13.5 14.9305
      vertex 7.7695 13.5 14.8454
    endloop
  endfacet
  facet normal -0.707107 0 0.707107
    outer loop
      vertex 7.85462 13.5 14.9305
      vertex 7.7695 5.5 14.8454
      vertex 7.85462 5.5 14.9305
    endloop
  endfacet
  facet normal -0.544643 0 0.838668
    outer loop
      vertex 7.575 13.5 14.7041
      vertex 7.67595 5.5 14.7696
      vertex 7.67595 13.5 14.7696
    endloop
  endfacet
  facet normal -0.544643 0 0.838668
    outer loop
      vertex 7.67595 5.5 14.7696
      vertex 7.575 13.5 14.7041
      vertex 7.575 5.5 14.7041
    endloop
  endfacet
  facet normal -0.838668 0 0.544643
    outer loop
      vertex 7.93037 5.5 15.024
      vertex 7.99593 13.5 15.125
      vertex 7.93037 13.5 15.024
    endloop
  endfacet
  facet normal -0.838668 0 0.544643
    outer loop
      vertex 7.99593 13.5 15.125
      vertex 7.93037 5.5 15.024
      vertex 7.99593 5.5 15.125
    endloop
  endfacet
  facet normal -0.891009 0 0.453986
    outer loop
      vertex 7.99593 5.5 15.125
      vertex 8.05058 13.5 15.2323
      vertex 7.99593 13.5 15.125
    endloop
  endfacet
  facet normal -0.891009 0 0.453986
    outer loop
      vertex 8.05058 13.5 15.2323
      vertex 7.99593 5.5 15.125
      vertex 8.05058 5.5 15.2323
    endloop
  endfacet
  facet normal -0.933581 0 0.358365
    outer loop
      vertex 8.05058 5.5 15.2323
      vertex 8.09371 13.5 15.3446
      vertex 8.05058 13.5 15.2323
    endloop
  endfacet
  facet normal -0.933581 0 0.358365
    outer loop
      vertex 8.09371 13.5 15.3446
      vertex 8.05058 5.5 15.2323
      vertex 8.09371 5.5 15.3446
    endloop
  endfacet
  facet normal 0.629318 0 0.777148
    outer loop
      vertex 6.2305 13.5 14.8454
      vertex 6.32405 5.5 14.7696
      vertex 6.32405 13.5 14.7696
    endloop
  endfacet
  facet normal 0.629318 0 0.777148
    outer loop
      vertex 6.32405 5.5 14.7696
      vertex 6.2305 13.5 14.8454
      vertex 6.2305 5.5 14.8454
    endloop
  endfacet
  facet normal 0.544643 0 0.838668
    outer loop
      vertex 6.32405 13.5 14.7696
      vertex 6.425 5.5 14.7041
      vertex 6.425 13.5 14.7041
    endloop
  endfacet
  facet normal 0.544643 0 0.838668
    outer loop
      vertex 6.425 5.5 14.7041
      vertex 6.32405 13.5 14.7696
      vertex 6.32405 5.5 14.7696
    endloop
  endfacet
  facet normal 0.453986 0 0.891009
    outer loop
      vertex 6.425 13.5 14.7041
      vertex 6.53225 5.5 14.6494
      vertex 6.53225 13.5 14.6494
    endloop
  endfacet
  facet normal 0.453986 0 0.891009
    outer loop
      vertex 6.53225 5.5 14.6494
      vertex 6.425 13.5 14.7041
      vertex 6.425 5.5 14.7041
    endloop
  endfacet
  facet normal 0.258818 0 0.965926
    outer loop
      vertex 6.64463 13.5 14.6063
      vertex 6.7609 5.5 14.5751
      vertex 6.7609 13.5 14.5751
    endloop
  endfacet
  facet normal 0.258818 0 0.965926
    outer loop
      vertex 6.7609 5.5 14.5751
      vertex 6.64463 13.5 14.6063
      vertex 6.64463 5.5 14.6063
    endloop
  endfacet
  facet normal 0.156433 0 0.987689
    outer loop
      vertex 6.7609 13.5 14.5751
      vertex 6.87979 5.5 14.5563
      vertex 6.87979 13.5 14.5563
    endloop
  endfacet
  facet normal 0.156433 0 0.987689
    outer loop
      vertex 6.87979 5.5 14.5563
      vertex 6.7609 13.5 14.5751
      vertex 6.7609 5.5 14.5751
    endloop
  endfacet
  facet normal 0.0523372 0 0.998629
    outer loop
      vertex 6.87979 13.5 14.5563
      vertex 7 5.5 14.55
      vertex 7 13.5 14.55
    endloop
  endfacet
  facet normal 0.0523372 0 0.998629
    outer loop
      vertex 7 5.5 14.55
      vertex 6.87979 13.5 14.5563
      vertex 6.87979 5.5 14.5563
    endloop
  endfacet
  facet normal 0.838672 -0 0.544637
    outer loop
      vertex 6.00407 5.5 15.125
      vertex 6.06963 13.5 15.024
      vertex 6.00407 13.5 15.125
    endloop
  endfacet
  facet normal 0.838672 0 0.544637
    outer loop
      vertex 6.06963 13.5 15.024
      vertex 6.00407 5.5 15.125
      vertex 6.06963 5.5 15.024
    endloop
  endfacet
  facet normal 0.933581 -0 0.358365
    outer loop
      vertex 5.90628 5.5 15.3446
      vertex 5.94942 13.5 15.2323
      vertex 5.90628 13.5 15.3446
    endloop
  endfacet
  facet normal 0.933581 0 0.358365
    outer loop
      vertex 5.94942 13.5 15.2323
      vertex 5.90628 5.5 15.3446
      vertex 5.94942 5.5 15.2323
    endloop
  endfacet
  facet normal 0.987689 -0 0.156433
    outer loop
      vertex 5.8563 5.5 15.5798
      vertex 5.87513 13.5 15.4609
      vertex 5.8563 13.5 15.5798
    endloop
  endfacet
  facet normal 0.987689 0 0.156433
    outer loop
      vertex 5.87513 13.5 15.4609
      vertex 5.8563 5.5 15.5798
      vertex 5.87513 5.5 15.4609
    endloop
  endfacet
  facet normal -0.987689 0 0.156433
    outer loop
      vertex 8.12487 5.5 15.4609
      vertex 8.1437 13.5 15.5798
      vertex 8.12487 13.5 15.4609
    endloop
  endfacet
  facet normal -0.987689 0 0.156433
    outer loop
      vertex 8.1437 13.5 15.5798
      vertex 8.12487 5.5 15.4609
      vertex 8.1437 5.5 15.5798
    endloop
  endfacet
  facet normal -0.998629 0 0.0523372
    outer loop
      vertex 8.1437 5.5 15.5798
      vertex 8.15 13.5 15.7
      vertex 8.1437 13.5 15.5798
    endloop
  endfacet
  facet normal -0.998629 0 0.0523372
    outer loop
      vertex 8.15 13.5 15.7
      vertex 8.1437 5.5 15.5798
      vertex 8.15 5.5 15.7
    endloop
  endfacet
  facet normal -1 0 0
    outer loop
      vertex 6 22.35 2.65
      vertex 6 13.5 2.65
      vertex 6 22.35 7.95
    endloop
  endfacet
  facet normal -1 0 0
    outer loop
      vertex 6 26.35 7.95
      vertex 6 29 2.65
      vertex 6 26.35 2.65
    endloop
  endfacet
  facet normal -1 0 0
    outer loop
      vertex 6 29 2.65
      vertex 6 26.35 7.95
      vertex 6 29 10.6
    endloop
  endfacet
  facet normal -1 0 0
    outer loop
      vertex 6 22.35 7.95
      vertex 6 29 10.6
      vertex 6 26.35 7.95
    endloop
  endfacet
  facet normal -1 0 0
    outer loop
      vertex 6 22.35 7.95
      vertex 6 13.5 10.6
      vertex 6 29 10.6
    endloop
  endfacet
  facet normal -1 0 0
    outer loop
      vertex 6 13.5 10.6
      vertex 6 22.35 7.95
      vertex 6 13.5 2.65
    endloop
  endfacet
  facet normal -0 0 1
    outer loop
      vertex 6 29 10.6
      vertex 8 13.5 10.6
      vertex 8 29 10.6
    endloop
  endfacet
  facet normal 0 0 1
    outer loop
      vertex 8 13.5 10.6
      vertex 6 29 10.6
      vertex 6 13.5 10.6
    endloop
  endfacet
  facet normal 1 0 0
    outer loop
      vertex 8 29 10.6
      vertex 8 26.35 7.95
      vertex 8 29 2.65
    endloop
  endfacet
  facet normal 1 0 0
    outer loop
      vertex 8 29 10.6
      vertex 8 22.35 7.95
      vertex 8 26.35 7.95
    endloop
  endfacet
  facet normal 1 -0 0
    outer loop
      vertex 8 13.5 10.6
      vertex 8 22.35 7.95
      vertex 8 29 10.6
    endloop
  endfacet
  facet normal 1 0 0
    outer loop
      vertex 8 13.5 2.65
      vertex 8 22.35 7.95
      vertex 8 13.5 10.6
    endloop
  endfacet
  facet normal 1 0 0
    outer loop
      vertex 8 22.35 7.95
      vertex 8 13.5 2.65
      vertex 8 22.35 2.65
    endloop
  endfacet
  facet normal 1 0 0
    outer loop
      vertex 8 29 2.65
      vertex 8 26.35 7.95
      vertex 8 26.35 2.65
    endloop
  endfacet
  facet normal 0 1 -0
    outer loop
      vertex 14 29 0
      vertex 8 29 2.65
      vertex 14 29 2.65
    endloop
  endfacet
  facet normal 0 1 0
    outer loop
      vertex 8 29 2.65
      vertex 14 29 0
      vertex 6 29 2.65
    endloop
  endfacet
  facet normal 0 1 0
    outer loop
      vertex 0 29 0
      vertex 6 29 2.65
      vertex 14 29 0
    endloop
  endfacet
  facet normal 0 1 0
    outer loop
      vertex 6 29 2.65
      vertex 0 29 0
      vertex 0 29 2.65
    endloop
  endfacet
  facet normal 0 1 -0
    outer loop
      vertex 8 29 2.65
      vertex 6 29 10.6
      vertex 8 29 10.6
    endloop
  endfacet
  facet normal 0 1 0
    outer loop
      vertex 6 29 10.6
      vertex 8 29 2.65
      vertex 6 29 2.65
    endloop
  endfacet
  facet normal 0 0 -1
    outer loop
      vertex 6 22.35 7.95
      vertex 8 26.35 7.95
      vertex 8 22.35 7.95
    endloop
  endfacet
  facet normal -0 0 -1
    outer loop
      vertex 8 26.35 7.95
      vertex 6 22.35 7.95
      vertex 6 26.35 7.95
    endloop
  endfacet
  facet normal 0 -1 0
    outer loop
      vertex 6 26.35 2.65
      vertex 8 26.35 7.95
      vertex 6 26.35 7.95
    endloop
  endfacet
  facet normal 0 -1 -0
    outer loop
      vertex 8 26.35 7.95
      vertex 6 26.35 2.65
      vertex 8 26.35 2.65
    endloop
  endfacet
  facet normal 0 1 -0
    outer loop
      vertex 8 22.35 2.65
      vertex 6 22.35 7.95
      vertex 8 22.35 7.95
    endloop
  endfacet
  facet normal 0 1 0
    outer loop
      vertex 6 22.35 7.95
      vertex 8 22.35 2.65
      vertex 6 22.35 2.65
    endloop
  endfacet
  facet normal -1 0 0
    outer loop
      vertex 0 0 0
      vertex 0 29 2.65
      vertex 0 29 0
    endloop
  endfacet
  facet normal -1 -0 0
    outer loop
      vertex 0 29 2.65
      vertex 0 0 0
      vertex 0 0 2.65
    endloop
  endfacet
  facet normal -0 0 1
    outer loop
      vertex 0 29 2.65
      vertex 6 26.35 2.65
      vertex 6 29 2.65
    endloop
  endfacet
  facet normal 0 0 1
    outer loop
      vertex 6 26.35 2.65
      vertex 0 29 2.65
      vertex 6 22.35 2.65
    endloop
  endfacet
  facet normal 0 0 1
    outer loop
      vertex 6 22.35 2.65
      vertex 1.15 13.5 2.65
      vertex 6 13.5 2.65
    endloop
  endfacet
  facet normal 0 0 1
    outer loop
      vertex 0 0 2.65
      vertex 1.15 11.2 2.65
      vertex 1.15 13.5 2.65
    endloop
  endfacet
  facet normal 0 0 1
    outer loop
      vertex 1.15 11.2 2.65
      vertex 0 0 2.65
      vertex 1.15 7.8 2.65
    endloop
  endfacet
  facet normal 0 0 1
    outer loop
      vertex 0 0 2.65
      vertex 1.15 13.5 2.65
      vertex 0 29 2.65
    endloop
  endfacet
  facet normal 0 0 1
    outer loop
      vertex 6 22.35 2.65
      vertex 0 29 2.65
      vertex 1.15 13.5 2.65
    endloop
  endfacet
  facet normal -0 0 1
    outer loop
      vertex 6 26.35 2.65
      vertex 8 22.35 2.65
      vertex 8 26.35 2.65
    endloop
  endfacet
  facet normal 0 0 1
    outer loop
      vertex 8 22.35 2.65
      vertex 6 26.35 2.65
      vertex 6 22.35 2.65
    endloop
  endfacet
  facet normal -0 0 1
    outer loop
      vertex 8.15 11.2 2.65
      vertex 12.85 7.8 2.65
      vertex 12.85 11.2 2.65
    endloop
  endfacet
  facet normal 0 0 1
    outer loop
      vertex 12.85 7.8 2.65
      vertex 8.15 11.2 2.65
      vertex 8.15 7.8 2.65
    endloop
  endfacet
  facet normal 0 0 1
    outer loop
      vertex 14 29 2.65
      vertex 12.85 13.5 2.65
      vertex 14 0 2.65
    endloop
  endfacet
  facet normal 0 0 1
    outer loop
      vertex 8 26.35 2.65
      vertex 14 29 2.65
      vertex 8 29 2.65
    endloop
  endfacet
  facet normal 0 0 1
    outer loop
      vertex 8 22.35 2.65
      vertex 14 29 2.65
      vertex 8 26.35 2.65
    endloop
  endfacet
  facet normal 0 0 1
    outer loop
      vertex 14 29 2.65
      vertex 8 22.35 2.65
      vertex 12.85 13.5 2.65
    endloop
  endfacet
  facet normal 0 0 1
    outer loop
      vertex 12.85 13.5 2.65
      vertex 8 22.35 2.65
      vertex 8 13.5 2.65
    endloop
  endfacet
  facet normal -0 0 1
    outer loop
      vertex 12.85 11.2 2.65
      vertex 14 0 2.65
      vertex 12.85 13.5 2.65
    endloop
  endfacet
  facet normal -0 0 1
    outer loop
      vertex 12.85 7.8 2.65
      vertex 14 0 2.65
      vertex 12.85 11.2 2.65
    endloop
  endfacet
  facet normal -0 0 1
    outer loop
      vertex 12.85 5.5 2.65
      vertex 14 0 2.65
      vertex 12.85 7.8 2.65
    endloop
  endfacet
  facet normal -0 0 1
    outer loop
      vertex 1.15 5.5 2.65
      vertex 14 0 2.65
      vertex 12.85 5.5 2.65
    endloop
  endfacet
  facet normal 0 0 1
    outer loop
      vertex 1.15 5.5 2.65
      vertex 0 0 2.65
      vertex 14 0 2.65
    endloop
  endfacet
  facet normal 0 0 1
    outer loop
      vertex 1.15 7.8 2.65
      vertex 0 0 2.65
      vertex 1.15 5.5 2.65
    endloop
  endfacet
  facet normal -0 0 1
    outer loop
      vertex 1.15 11.2 2.65
      vertex 5.85 7.8 2.65
      vertex 5.85 11.2 2.65
    endloop
  endfacet
  facet normal 0 0 1
    outer loop
      vertex 5.85 7.8 2.65
      vertex 1.15 11.2 2.65
      vertex 1.15 7.8 2.65
    endloop
  endfacet
  facet normal 1 -0 0
    outer loop
      vertex 14 0 2.65
      vertex 14 29 0
      vertex 14 29 2.65
    endloop
  endfacet
  facet normal 1 0 0
    outer loop
      vertex 14 29 0
      vertex 14 0 2.65
      vertex 14 0 0
    endloop
  endfacet
  facet normal 0 -1 0
    outer loop
      vertex 0 0 0
      vertex 14 0 2.65
      vertex 0 0 2.65
    endloop
  endfacet
  facet normal 0 -1 -0
    outer loop
      vertex 14 0 2.65
      vertex 0 0 0
      vertex 14 0 0
    endloop
  endfacet
endsolid OpenSCAD_Model
